<svg width="64" height="64" viewBox="0 0 64 64" fill="none" xmlns="http://www.w3.org/2000/svg">
<rect width="64" height="64" fill="url(#paint0_linear_45_123)"/>
<path d="M34.0067 25.394C33.9882 25.3435 33.9576 25.2984 33.9175 25.2625C33.8774 25.2267 33.8291 25.2013 33.7769 25.1886C33.7187 25.1724 33.6572 25.172 33.5988 25.1875C33.5403 25.2029 33.4871 25.2337 33.4445 25.2766L32.7455 25.9757L32.6282 26.093L27.075 20.5692C26.0654 19.5642 24.6988 19 23.2743 19C21.8498 19 20.4832 19.5642 19.4736 20.5692L11.5692 28.4834C10.5639 29.4998 10 30.8716 10 32.3012C10 33.7308 10.5639 35.1026 11.5692 36.119L19.4834 43.9892C20.492 44.9941 21.8578 45.5584 23.2816 45.5584C24.7054 45.5584 26.0712 44.9941 27.0799 43.9892L28.8788 42.1903C29.1134 41.9557 29.397 41.633 29.5534 41.2126C29.675 40.8751 29.7136 40.5132 29.6659 40.1576C29.6183 39.8019 29.4858 39.463 29.2796 39.1693C29.2022 39.0552 29.112 38.9502 29.0108 38.8565C28.5856 38.4425 28.0149 38.2121 27.4215 38.2149C26.8281 38.2176 26.2596 38.4533 25.8382 38.8711L23.8927 40.8118C23.7766 40.9295 23.6289 41.011 23.4674 41.0464C23.3149 41.0841 23.1544 41.0739 23.0079 41.0171C22.8562 40.9626 22.719 40.874 22.607 40.758L14.7515 32.8927C14.6311 32.772 14.548 32.6193 14.5119 32.4527C14.4697 32.2412 14.508 32.0215 14.6195 31.8368L14.6635 31.7879C14.7564 31.695 22.5973 23.8688 22.6657 23.8004C22.7892 23.676 22.9479 23.5924 23.1203 23.5608C23.1735 23.5511 23.2275 23.5462 23.2816 23.5462C23.3959 23.5446 23.5092 23.5668 23.6144 23.6114C23.7196 23.656 23.8144 23.722 23.8927 23.8052L29.4263 29.3046L29.1477 29.5833L28.605 30.1357C28.5621 30.1782 28.5313 30.2315 28.5159 30.2899C28.5004 30.3483 28.5008 30.4098 28.5171 30.4681C28.5298 30.5203 28.5551 30.5686 28.5909 30.6086C28.6268 30.6487 28.6719 30.6793 28.7224 30.6978L33.7231 31.3089C33.9297 31.306 34.127 31.2227 34.2731 31.0767C34.4192 30.9306 34.5025 30.7333 34.5053 30.5267L34.0067 25.394Z" fill="url(#paint1_linear_45_123)"/>
<path opacity="0.49" d="M14.6877 32.8242C14.4628 32.57 14.4188 32.1301 14.6193 31.8319C14.6193 31.8319 12.0187 34.672 13.2701 37.8103L14.9175 39.4479L17.3127 35.4639L14.6877 32.8242Z" fill="url(#paint2_linear_45_123)"/>
<path opacity="0.49" d="M22.793 40.9145C25.726 43.6128 28.9572 42.1121 28.9572 42.1121C28.9572 42.1121 29.3825 41.721 29.5536 41.2029C29.1185 40.9927 25.9655 38.7343 25.9655 38.7343L24.103 40.5967C23.4333 41.4082 22.793 40.9145 22.793 40.9145Z" fill="url(#paint3_linear_45_123)"/>
<path opacity="0.49" d="M20.8572 25.6139C20.8572 25.6139 22.7343 23.7222 22.7392 23.7319C22.7392 23.7319 23.2427 23.3311 23.7706 23.6977C23.7706 23.6977 20.647 21.1264 17.3082 22.7396L16.3354 23.7173L20.8572 25.6139Z" fill="url(#paint4_linear_45_123)"/>
<path d="M29.9935 39.1693C30.012 39.2198 30.0426 39.2649 30.0827 39.3007C30.1227 39.3365 30.171 39.3619 30.2232 39.3746C30.2815 39.3909 30.343 39.3913 30.4014 39.3758C30.4598 39.3603 30.5131 39.3296 30.5556 39.2866L31.2547 38.5876L31.372 38.4703L36.9252 43.9892C37.9348 44.9942 39.3013 45.5584 40.7258 45.5584C42.1504 45.5584 43.5169 44.9942 44.5265 43.9892L52.431 36.075C53.4363 35.0586 54.0002 33.6868 54.0002 32.2572C54.0002 30.8276 53.4363 29.4558 52.431 28.4394L44.5168 20.5692C43.5081 19.5642 42.1423 19 40.7185 19C39.2947 19 37.9289 19.5642 36.9203 20.5692L35.1214 22.3681C34.8867 22.6027 34.6032 22.9253 34.4468 23.3457C34.3252 23.6833 34.2866 24.0452 34.3342 24.4008C34.3819 24.7564 34.5144 25.0954 34.7205 25.3891C34.798 25.5032 34.8882 25.6082 34.9894 25.7019C35.4145 26.1158 35.9853 26.3462 36.5786 26.3435C37.172 26.3408 37.7406 26.1051 38.1619 25.6873L40.1075 23.7466C40.2235 23.6289 40.3713 23.5473 40.5328 23.5119C40.6853 23.4742 40.8458 23.4845 40.9923 23.5413C41.144 23.5958 41.2811 23.6844 41.3931 23.8004L49.2487 31.6559C49.369 31.7766 49.4522 31.9293 49.4882 32.0959C49.5305 32.3074 49.4921 32.5271 49.3807 32.7118L49.3367 32.7607C49.2438 32.8536 41.4029 40.6798 41.3344 40.7482C41.2109 40.8726 41.0523 40.9562 40.8798 40.9878C40.8266 40.9975 40.7726 41.0024 40.7185 41.0024C40.6043 41.004 40.4909 40.9818 40.3857 40.9372C40.2806 40.8926 40.1858 40.8266 40.1075 40.7434L34.569 35.2684L34.8476 34.9898L35.3902 34.4374C35.4331 34.3948 35.4639 34.3416 35.4794 34.2831C35.4949 34.2247 35.4945 34.1632 35.4782 34.105C35.4655 34.0528 35.4401 34.0045 35.4043 33.9644C35.3685 33.9243 35.3234 33.8937 35.2729 33.8752L30.277 33.2642C30.0704 33.267 29.8731 33.3503 29.7271 33.4964C29.581 33.6425 29.4977 33.8398 29.4949 34.0463L29.9935 39.1693Z" fill="url(#paint5_linear_45_123)"/>
<path opacity="0.49" d="M49.3118 31.739C49.5367 31.9932 49.5807 32.4331 49.3802 32.7313C49.3802 32.7313 51.9808 29.8912 50.7294 26.7529L49.0821 25.1153L46.6868 29.0993L49.3118 31.739Z" fill="url(#paint6_linear_45_123)"/>
<path opacity="0.49" d="M41.2075 23.6488C38.2745 20.9504 35.0433 22.4511 35.0433 22.4511C35.0433 22.4511 34.618 22.8422 34.4469 23.3603C34.882 23.5705 38.0349 25.829 38.0349 25.829L39.8974 23.9665C40.5671 23.155 41.2075 23.6488 41.2075 23.6488Z" fill="url(#paint7_linear_45_123)"/>
<path opacity="0.49" d="M43.1379 38.9494C43.1379 38.9494 41.2608 40.8412 41.2559 40.8314C41.2559 40.8314 40.7524 41.2323 40.2245 40.8656C40.2245 40.8656 43.3481 43.4369 46.6869 41.8237L47.6597 40.8461L43.1379 38.9494Z" fill="url(#paint8_linear_45_123)"/>
<defs>
<linearGradient id="paint0_linear_45_123" x1="32" y1="12.726" x2="32" y2="58.8781" gradientUnits="userSpaceOnUse">
<stop stop-color="#1D2643"/>
<stop offset="1" stop-color="#12142C"/>
</linearGradient>
<linearGradient id="paint1_linear_45_123" x1="22.2526" y1="15.6113" x2="22.2526" y2="67.0512" gradientUnits="userSpaceOnUse">
<stop offset="0.0051" stop-color="#00BFE1"/>
<stop offset="0.9651" stop-color="#2738AB"/>
</linearGradient>
<linearGradient id="paint2_linear_45_123" x1="12.3566" y1="33.6228" x2="15.6705" y2="36.3944" gradientUnits="userSpaceOnUse">
<stop offset="0.03489" stop-color="#1B1464"/>
<stop offset="1" stop-color="#1B1464" stop-opacity="0"/>
</linearGradient>
<linearGradient id="paint3_linear_45_123" x1="25.2128" y1="42.4915" x2="26.7914" y2="40.2527" gradientUnits="userSpaceOnUse">
<stop offset="0.03489" stop-color="#1B1464"/>
<stop offset="1" stop-color="#1B1464" stop-opacity="0"/>
</linearGradient>
<linearGradient id="paint4_linear_45_123" x1="20.7641" y1="21.9486" x2="19.5793" y2="24.8793" gradientUnits="userSpaceOnUse">
<stop offset="0.03489" stop-color="#1B1464"/>
<stop offset="1" stop-color="#1B1464" stop-opacity="0"/>
</linearGradient>
<linearGradient id="paint5_linear_45_123" x1="41.7475" y1="15.6113" x2="41.7475" y2="67.0512" gradientUnits="userSpaceOnUse">
<stop offset="0.0051" stop-color="#00BFE1"/>
<stop offset="0.9651" stop-color="#2738AB"/>
</linearGradient>
<linearGradient id="paint6_linear_45_123" x1="51.6421" y1="30.9397" x2="48.3282" y2="28.1681" gradientUnits="userSpaceOnUse">
<stop offset="0.03489" stop-color="#1B1464"/>
<stop offset="1" stop-color="#1B1464" stop-opacity="0"/>
</linearGradient>
<linearGradient id="paint7_linear_45_123" x1="38.7874" y1="22.0722" x2="37.2087" y2="24.3109" gradientUnits="userSpaceOnUse">
<stop offset="0.03489" stop-color="#1B1464"/>
<stop offset="1" stop-color="#1B1464" stop-opacity="0"/>
</linearGradient>
<linearGradient id="paint8_linear_45_123" x1="43.2316" y1="42.6132" x2="44.4164" y2="39.6826" gradientUnits="userSpaceOnUse">
<stop offset="0.03489" stop-color="#1B1464"/>
<stop offset="1" stop-color="#1B1464" stop-opacity="0"/>
</linearGradient>
</defs>
</svg>
