<svg width="64" height="64" viewBox="0 0 64 64" fill="none" xmlns="http://www.w3.org/2000/svg">
<rect width="64" height="64" fill="white"/>
<g clip-path="url(#clip0_47_314)">
<path d="M10 32.2972C10 29.2191 12.0594 27.1154 15.0268 27.1154C17.9942 27.1154 19.8322 29.197 19.8322 32.2529C19.8322 35.3088 17.7506 37.4347 14.8054 37.4347C11.8601 37.4347 10 35.3531 10 32.2972ZM16.3776 32.4965C16.3776 29.0641 15.8904 27.6247 14.9382 27.6247C14.0524 27.6247 13.4545 29.2634 13.4545 32.0536C13.4545 35.486 13.9417 36.9254 14.8939 36.9254C15.7797 36.9254 16.3776 35.2867 16.3776 32.4965Z" fill="black"/>
<path d="M21.5594 37.4347H21.2936V24.9231C21.2936 23.8601 21.1386 23.6165 20.6736 23.3951L20.2307 23.1958L20.275 22.9079L24.5267 22V28.7984H24.6153C25.3461 27.8019 26.2983 27.1154 27.2948 27.1154C29.1771 27.1154 30.4836 29.2191 30.4836 31.9429C30.4836 35.4639 28.3135 37.3683 25.8997 37.3683C24.9032 37.3683 24.1946 37.0804 23.641 36.7261L21.5594 37.4347ZM24.5267 35.3753C24.9253 36.3496 25.2797 36.859 25.8554 36.859C26.6526 36.859 27.0291 35.1538 27.0291 32.7622C27.0291 30.3706 26.4976 28.9091 25.5232 28.9091C25.1689 28.9091 24.8368 29.2634 24.5267 29.662V35.3753Z" fill="black"/>
<path d="M32.1667 30.4149C32.1667 29.352 32.0117 29.1084 31.5466 28.8869L31.1037 28.6876L31.148 28.3998L35.3998 27.1154V37.5454C35.3998 40.0478 33.4068 42.8823 30.4837 42.8823C29.2879 42.8823 28.5571 42.2179 28.5571 41.2657C28.5571 40.4907 29.1329 39.8706 29.8415 39.8706C30.6609 39.8706 31.1037 40.5349 31.1037 41.2657C31.1037 41.5757 31.0152 41.9079 30.838 42.1958C31.8788 42.1958 32.1667 40.6457 32.1667 38.2762V30.4149ZM31.7681 24.0816C31.7681 22.9965 32.5431 22.1772 33.6282 22.1772C34.7133 22.1772 35.4884 22.9965 35.4884 24.0816C35.4884 25.1667 34.7133 25.986 33.6282 25.986C32.5431 25.986 31.7681 25.1667 31.7681 24.0816Z" fill="black"/>
<path d="M43.0828 37.1247L42.8392 36.3053L41.3998 32.5186L41.0012 32.9615V36.2611C41.0012 36.5489 41.0898 36.6375 41.5327 36.6818L41.887 36.7482L41.9534 37.1247H36.8159L36.8824 36.7482L37.2588 36.7039C37.6353 36.6818 37.7681 36.5711 37.7681 36.2832V24.9231C37.7681 23.8601 37.6131 23.6165 37.1481 23.3951L36.7052 23.1958L36.7495 22.9079L41.0023 22V32.1643H41.0909L42.6189 30.4813C43.5268 29.4627 43.8368 28.9755 43.8368 28.444C43.8368 28.1119 43.5932 27.8683 43.1504 27.824L42.8625 27.8019L42.796 27.4254H46.9371L46.8706 27.8019L46.627 27.824C45.9627 27.8904 44.9883 28.6433 43.9033 29.817L43.7704 29.9499L45.7856 35.2646C46.1842 36.3053 46.4056 36.5932 46.8263 36.6818L47.0478 36.7261L47.0921 37.1247H43.0839H43.0828Z" fill="black"/>
<path d="M53.8671 35.5303C53.0699 36.6596 52.0734 37.4347 50.7669 37.4347C49.0618 37.4347 48.2646 36.3275 48.2867 34.1352L48.3531 28.8426L47.113 28.7762L47.4895 27.6468L48.8182 26.6725L51.099 24.8566H51.6305L51.5862 27.4254H54L53.7342 28.7983H51.5641L51.5198 33.6037C51.4976 35.3531 51.852 35.8182 52.6049 35.8182C53.1363 35.8182 53.4685 35.5303 53.7342 35.2203L53.8671 35.5303Z" fill="black"/>
<path d="M36.7063 41.971C36.7063 40.3467 37.9187 39.0977 39.4423 39.0977C40.9658 39.0977 42.1406 40.2847 42.1406 41.8968C42.1406 43.5089 40.9282 44.7822 39.429 44.7822C37.9298 44.7822 36.7052 43.5953 36.7052 41.971H36.7063ZM41.3666 42.0086C41.3666 41.0963 41.154 40.2969 40.679 39.8219C40.3413 39.472 39.9173 39.2849 39.4168 39.2849C38.3051 39.2849 37.4548 40.4098 37.4548 41.8337C37.4548 42.7959 37.7294 43.6451 38.2166 44.1323C38.5166 44.4324 38.954 44.6073 39.4412 44.6073C40.5284 44.6073 41.3655 43.458 41.3655 42.0086H41.3666Z" fill="black"/>
<path d="M42.703 44.4445L43.1148 44.4191C43.4027 44.4069 43.5024 44.3936 43.5024 44.2696V40.3589C43.5024 39.7964 43.4271 39.6713 43.127 39.6469L42.6144 39.5849L42.6266 39.4598L44.1756 39.1099L44.1501 40.1839L44.1877 40.2094C44.7126 39.7477 45.4367 39.0977 46.2738 39.0977C46.6613 39.0977 46.9979 39.2107 47.2481 39.4598C47.5105 39.7344 47.66 40.1341 47.66 40.6844V44.2829C47.66 44.3582 47.6722 44.3825 48.1095 44.4202L48.5092 44.4456L48.5469 44.6206H46.1608L46.1985 44.4456L46.6236 44.4202C46.9481 44.408 47.0112 44.3582 47.0112 44.2707V40.9103C47.0112 40.0112 46.5616 39.6237 45.8497 39.6237C45.2252 39.6237 44.6251 39.9979 44.1634 40.4353V44.2962C44.1634 44.3836 44.2254 44.3958 44.6251 44.4213L45.0126 44.4468L45.0625 44.6217H42.6642L42.7019 44.4468L42.703 44.4445Z" fill="black"/>
<path d="M48.9366 42.0585C48.9366 40.4342 50.0239 39.0977 51.5608 39.0977C52.7721 39.0977 53.4597 39.8972 53.4597 40.7719C53.4597 40.897 53.4475 40.9845 53.4342 41.0963L49.7239 41.0708C49.6984 41.2579 49.6619 41.5458 49.6619 41.7584C49.6619 43.2199 50.5366 44.2696 51.6737 44.2696C52.4488 44.2696 52.9603 43.9574 53.4353 43.2454L53.5726 43.3329C53.0854 44.2076 52.3857 44.7701 51.4113 44.7701C50.0494 44.7701 48.9378 43.6086 48.9378 42.0585H48.9366ZM52.6968 40.8715C52.709 39.9846 52.2849 39.297 51.46 39.297C50.7602 39.297 50.0228 39.9592 49.7604 40.8959L52.6968 40.8704V40.8715Z" fill="black"/>
</g>
<defs>
<clipPath id="clip0_47_314">
<rect width="44" height="22.7823" fill="white" transform="translate(10 22)"/>
</clipPath>
</defs>
</svg>
