<svg width="64" height="64" viewBox="0 0 64 64" fill="none" xmlns="http://www.w3.org/2000/svg">
<rect width="64" height="64" fill="white"/>
<g clip-path="url(#clip0_46_241)">
<path d="M49.8875 31.8875C49.8875 29.6375 49.4375 27.3875 48.5375 25.25C46.7375 20.975 43.25 17.375 38.8625 15.6875C36.725 14.9 34.5875 14.3375 32.3375 14.3375C30.425 14.3375 28.625 14.675 26.825 15.2375C19.7375 17.7125 14.9 24.35 14.9 31.8875C14.9 41.5625 22.775 49.325 32.3375 49.325C39.9875 49.325 46.625 44.4875 48.9875 37.2875C49.55 35.6 49.8875 33.8 49.8875 31.8875ZM39.425 17.7125C42.4625 19.2875 44.9375 21.7625 46.5125 24.6875H39.425V17.7125ZM38.975 26.375H47.3C47.975 28.175 48.3125 29.975 48.3125 31.8875C48.3125 33.35 48.0875 34.8125 47.75 36.275H28.9625L33.9125 31.325L38.975 26.375ZM37.7375 16.925V25.1375L27.8375 35.0375V16.7C31.1 15.6875 34.5875 15.8 37.7375 16.925ZM32.3375 47.75C23.5625 47.75 16.475 40.6625 16.475 31.8875C16.475 25.475 20.4125 19.7375 26.2625 17.2625V37.0625C26.2625 37.175 26.2625 37.2875 26.375 37.4C26.4875 37.625 26.6 37.7375 26.825 37.85C26.9375 37.9625 27.05 37.9625 27.1625 37.9625H47.1875C44.6 43.925 38.8625 47.75 32.3375 47.75Z" fill="#0E74FF"/>
</g>
<defs>
<clipPath id="clip0_46_241">
<rect width="36" height="36" fill="white" transform="translate(14 14)"/>
</clipPath>
</defs>
</svg>
