<svg width="64" height="64" viewBox="0 0 64 64" fill="none" xmlns="http://www.w3.org/2000/svg">
<rect width="64" height="64" fill="white"/>
<path fill-rule="evenodd" clip-rule="evenodd" d="M16 29.379V43.2074C16 43.8183 16.512 44.3128 17.1433 44.3128H26.2836C26.9149 44.3128 27.4269 43.8183 27.4269 43.2074V40.499C27.4269 38.0583 29.4735 36.0786 31.9985 36.0786C34.5236 36.0786 36.5702 38.0568 36.5702 40.5005V43.2059C36.5702 43.8168 37.0822 44.3114 37.7135 44.3114H46.8553C47.4865 44.3114 47.9985 43.8168 47.9985 43.2059V29.4008C47.9985 28.3157 47.6742 27.251 46.9251 26.4452C45.0124 24.4047 42.7004 22.7795 40.1327 21.6707C37.5651 20.5619 34.7968 19.9933 32 20.0001C29.1952 19.9661 26.4146 20.5229 23.8392 21.6344C21.2637 22.7458 18.9511 24.3869 17.0516 26.451C16.3171 27.2539 16 28.3055 16 29.379Z" fill="black"/>
</svg>
