<svg width="123" height="31" viewBox="0 0 123 31" fill="none" xmlns="http://www.w3.org/2000/svg">
<g clip-path="url(#clip0_15013_11532)">
<path d="M26.0467 15.6383L17.6522 17.1673C17.4381 17.4426 16.9335 17.9013 16.6889 18.0236C15.6338 18.5588 14.9152 18.4059 14.2883 18.2377C13.8907 18.1306 13.6613 18.0848 13.325 17.9319L11.276 18.2071L12.5146 28.5894L26.9029 25.99L26.0467 15.6383ZM13.2332 27.6108L13.1109 26.4793L15.4656 22.9013L18.1262 23.6811L20.4198 19.8432L23.1721 21.6628L25.2669 17.2744L26.0161 25.256L13.2332 27.6108ZM12.6369 17.412C11.5971 16.7392 10.5268 15.7912 10.0528 15.256C9.97633 15.1949 9.99162 14.9349 9.99162 14.9349C10.4198 15.2713 12.1782 16.5251 14.0283 17.0909C14.6858 17.2897 15.695 17.3661 16.5665 16.8768C17.2393 16.4946 18.0344 15.8371 18.5084 15.1643L18.6002 15.3172C18.6002 15.4242 18.3708 15.9135 18.2638 16.1123C18.4626 16.2346 18.6155 16.2652 18.8448 16.3264L20.3892 16.0817C20.9396 15.1949 21.3372 13.7576 20.9091 12.3814C20.6644 11.6016 19.4106 10.0267 19.3188 9.95022C18.9977 9.64441 19.3647 8.48233 18.7531 7.19793C18.0956 5.85236 16.3678 4.44563 15.6185 3.81872C15.8326 3.97163 17.1935 4.52209 17.8204 5.28661C17.8815 5.21016 17.9121 4.79732 17.958 4.69028C17.4075 3.98692 17.3769 2.7178 17.3769 2.38141C17.3769 1.7545 17.0558 1.05114 17.0558 1.05114C17.0558 1.05114 17.6063 1.47927 17.7439 2.22851C17.9121 3.10007 18.2638 3.80343 18.7378 4.38447C19.6247 5.48539 20.4198 6.05114 20.8326 5.63829C21.3219 5.149 20.3433 2.96245 19.1048 1.73921C17.6522 0.317193 17.2699 0.500679 16.4289 0.806489C15.7562 1.03585 15.3892 2.97774 13.6155 2.93187C13.3097 2.90129 12.5451 2.87071 12.1629 2.886C12.3617 2.61077 12.5299 2.3967 12.5299 2.3967C12.5299 2.3967 11.9335 2.64135 11.4289 2.94716L11.3831 2.886C11.5513 2.51903 11.7347 2.30496 11.7347 2.30496C11.7347 2.30496 11.2607 2.59548 10.8326 2.93187C10.9091 2.50374 11.2149 2.22851 11.2149 2.22851C11.2149 2.22851 10.6185 2.33554 9.85401 3.17652C8.98245 3.40588 8.78367 3.57407 8.08031 3.87988C6.94881 3.63524 6.42893 3.23768 5.92435 2.50374C5.54208 1.95328 4.85401 1.86154 4.15065 2.15206C3.12618 2.58019 1.84178 3.14594 1.84178 3.14594C1.84178 3.14594 2.26991 3.13065 2.69805 3.14594C2.10172 3.3753 1.52068 3.68111 1.52068 3.68111C1.52068 3.68111 1.79591 3.66582 2.14759 3.68111C1.90294 3.87988 1.78061 3.97163 1.55126 4.12453C1.0008 4.52209 0.557373 4.9808 0.557373 4.9808C0.557373 4.9808 0.924345 4.81261 1.26074 4.72086C1.03138 5.25603 0.557373 5.65358 0.649116 6.31108C0.725569 6.90741 1.45951 8.14594 2.42282 8.91047C2.49927 8.97163 3.79896 10.1796 4.77756 9.69028C5.75615 9.20098 6.13841 8.75756 6.30661 8.08478C6.49009 7.30496 6.38306 6.72392 5.98551 5.04196C5.84789 4.4915 5.5115 3.34472 5.34331 2.80955L5.37389 2.77897C5.69499 3.45175 6.50538 5.24074 6.84178 6.4334C7.36165 8.29884 7.19346 9.24686 6.9641 9.59854C6.24545 10.6383 4.42587 10.7912 3.60019 10.2102C3.47786 12.2132 3.92129 13.1001 4.07419 13.5435C3.99774 14.0481 4.33413 15.0114 4.33413 15.0114C4.33413 15.0114 4.36471 14.5832 4.51762 14.3539C4.56349 14.8585 4.80814 15.4701 4.80814 15.4701C4.80814 15.4701 4.79285 15.1031 4.91517 14.782C5.08337 15.0573 5.20569 15.1184 5.3586 15.3325C5.5115 15.8829 5.81731 16.2805 5.81731 16.2805C5.81731 16.2805 5.77144 15.99 5.78673 15.6842C6.55126 16.4181 6.67358 17.4884 6.75003 18.2988C6.9641 20.5466 3.20263 22.3355 2.46869 23.7423C1.91823 24.568 1.58184 25.8982 2.51456 26.6781C4.77756 28.5588 3.906 29.0787 5.0375 29.9044C6.59713 31.0358 8.53902 30.5313 9.19652 29.6138C10.1139 28.3294 9.88459 27.1215 9.53291 25.99C9.25768 25.1031 8.53902 23.6352 7.63688 23.0695C6.71945 22.4884 5.81731 22.3814 5.06808 22.4579L5.14453 22.3814C6.23016 22.1673 7.37694 22.2897 8.20263 22.8095C9.13535 23.4059 9.99162 24.4456 10.435 26.0206C10.9396 25.9441 11.0161 25.9135 11.4748 25.8524L10.4198 17.6566L12.6369 17.412ZM17.8815 7.21322C18.8448 7.65664 18.7225 8.51291 18.7378 9.0175C18.7531 9.15511 18.7378 9.26215 18.7225 9.32331C18.5849 9.24686 18.3861 9.20099 18.0497 9.21628C17.958 9.21628 17.851 9.23157 17.7592 9.24686C17.4075 9.06337 17.1935 8.68111 16.9947 8.28355C16.9794 8.25297 16.9641 8.2071 16.9488 8.17652C16.9488 8.16123 16.9335 8.14594 16.9335 8.13065V8.11536C16.8265 7.77897 16.9029 7.70251 16.9488 7.61077C16.9947 7.51903 17.1629 7.41199 16.9182 7.33554C16.9029 7.33554 16.8724 7.32025 16.8418 7.32025C17.01 7.10618 17.5146 7.04502 17.8815 7.21322ZM16.6889 12.8095C16.8724 12.6719 17.7286 12.3967 18.5237 12.2897C18.9366 12.2438 19.5329 12.2132 19.6552 12.2897C19.8999 12.4273 19.8999 12.8554 19.7317 13.253C19.487 13.834 19.1354 14.4609 18.7225 14.5068C18.065 14.5985 17.4534 14.2469 16.75 13.7117C16.5054 13.5282 16.3525 13.0695 16.6889 12.8095ZM10.5115 8.45175C11.5513 7.74839 12.8815 8.02362 12.6522 8.23768C12.224 8.65053 12.7898 8.5282 12.851 9.27744C12.8968 9.8279 12.7133 10.1337 12.5604 10.3019C12.2393 10.3478 11.8418 10.4242 11.3678 10.5771C11.0925 10.6689 10.8479 10.7606 10.6338 10.8677C10.5727 10.8371 10.5115 10.7912 10.4503 10.73C9.73168 10.0878 9.76227 8.97163 10.5115 8.45175Z" fill="white"/>
<path fill-rule="evenodd" clip-rule="evenodd" d="M38.5849 22.2744H32.7439V8.81873H38.5849C42.7898 8.81873 44.8999 10.9441 44.8999 15.1796C44.8999 19.9044 42.8051 22.2744 38.5849 22.2744ZM35.2515 20.1031H38.2179C41.0161 20.1031 42.4075 18.467 42.4075 15.1796C42.4075 12.3814 41.0161 10.99 38.2179 10.99H35.2515V20.1031Z" fill="white"/>
<path fill-rule="evenodd" clip-rule="evenodd" d="M47.5145 22.2744H44.9609L50.6796 8.81873H53.3707L59.2117 22.2744H56.5206L54.8233 18.6047H50.5114L51.3677 16.4487H54.1658L51.964 11.3875L47.5145 22.2744Z" fill="white"/>
<path fill-rule="evenodd" clip-rule="evenodd" d="M57.7898 8.81873H68.0192V10.99H64.1659V22.2744H61.6583V10.99H57.7898V8.81873Z" fill="white"/>
<path fill-rule="evenodd" clip-rule="evenodd" d="M69.3034 22.2744H66.7346L72.4686 8.81873H75.1444L80.9854 22.2744H78.3095L76.6123 18.6047H72.2851L73.1414 16.4487H75.9395L73.7377 11.3875L69.3034 22.2744Z" fill="white"/>
<path fill-rule="evenodd" clip-rule="evenodd" d="M88.4931 22.2744H82.6521V8.81873H88.4931C92.698 8.81873 94.8081 10.9441 94.8081 15.1796C94.8081 19.9044 92.698 22.2744 88.4931 22.2744ZM85.1445 20.1031H88.1108C90.909 20.1031 92.3004 18.467 92.3004 15.1796C92.3004 12.3814 90.8937 10.99 88.1108 10.99H85.1445V20.1031Z" fill="white"/>
<path fill-rule="evenodd" clip-rule="evenodd" d="M96.5054 15.5618C96.5054 11.0053 98.7684 8.72697 103.279 8.72697C107.713 8.72697 109.946 11.0053 109.946 15.5618C109.946 20.1031 107.729 22.3661 103.279 22.3661C98.9519 22.3661 96.7041 20.1031 96.5054 15.5618ZM103.264 20.1949C105.97 20.1949 107.331 18.6352 107.331 15.5007C107.331 12.412 105.97 10.8829 103.264 10.8829C100.481 10.8829 99.0895 12.4273 99.0895 15.5007C99.0895 18.6352 100.481 20.1949 103.264 20.1949Z" fill="white"/>
<path fill-rule="evenodd" clip-rule="evenodd" d="M120.343 16.8309V19.9808C119.762 20.1337 119.258 20.2102 118.799 20.2102C115.741 20.2102 114.212 18.5894 114.212 15.3631C114.212 12.3814 115.832 10.8982 119.059 10.8982C120.404 10.8982 121.658 11.1429 122.836 11.6475V9.38447C121.673 8.94104 120.358 8.72697 118.875 8.72697C114.043 8.72697 111.612 10.9288 111.612 15.3631C111.612 20.042 113.982 22.3661 118.753 22.3661C120.389 22.3661 121.75 22.1215 122.836 21.6475V14.6138H118.799L117.958 16.8309H120.343Z" fill="white"/>
</g>
<defs>
<clipPath id="clip0_15013_11532">
<rect width="122.401" height="30" fill="white" transform="translate(0.480957 0.592407)"/>
</clipPath>
</defs>
</svg>
