<svg width="124" height="29" viewBox="0 0 124 29" fill="none" xmlns="http://www.w3.org/2000/svg">
<g clip-path="url(#clip0_15013_11545)">
<path d="M35.779 12.0964C34.9092 11.5109 32.624 11.2609 30.9628 11.7087C30.8737 10.0539 30.0196 8.65915 28.4587 7.44217L27.8811 7.05444L27.496 7.63629C26.739 8.78522 26.4199 10.3166 26.5327 11.7087C26.6219 12.5665 26.9199 13.5302 27.496 14.2297C25.3337 15.4841 23.3402 15.1993 14.5128 15.1993H0.883877C0.844313 17.1928 1.16452 21.0267 3.60269 24.1481C3.87225 24.4931 4.16713 24.8264 4.48786 25.1477C6.47027 27.1327 9.4655 28.5887 13.9441 28.5924C20.777 28.5987 26.6309 24.905 30.1921 15.9753C31.3637 15.9942 34.4571 16.1852 35.9711 13.2601C36.008 13.2111 36.3561 12.4847 36.3561 12.4847L35.779 12.097V12.0964ZM9.77832 10.2739H5.94592V14.1063H9.77832V10.2739ZM14.729 10.2739H10.8967V14.1063H14.729V10.2739ZM19.6803 10.2739H15.8479V14.1063H19.6803V10.2739ZM24.6316 10.2739H20.7992V14.1063H24.6316V10.2739ZM4.82706 10.2739H0.994655V14.1063H4.82706V10.2739ZM9.77832 5.43339H5.94592V9.26579H9.77832V5.43339ZM14.729 5.43339H10.8967V9.26579H14.729V5.43339ZM19.6803 5.43339H15.8479V9.26579H19.6803V5.43339ZM19.6803 0.592377H15.8479V4.42478H19.6803V0.592377Z" fill="white"/>
<path d="M123.762 22.7111C123.762 23.7102 122.978 24.4947 121.957 24.4947C120.937 24.4947 120.142 23.7102 120.142 22.7111C120.142 21.712 120.947 20.9492 121.957 20.9492C122.967 20.9492 123.762 21.7336 123.762 22.7111ZM120.593 22.7111C120.593 23.4955 121.173 24.1185 121.968 24.1185C122.763 24.1185 123.311 23.4955 123.311 22.7222C123.311 21.9489 122.742 21.3037 121.958 21.3037C121.175 21.3037 120.594 21.9378 120.594 22.7111H120.593ZM121.679 23.6353H121.27V21.8734C121.431 21.8412 121.657 21.8196 121.947 21.8196C122.28 21.8196 122.43 21.8734 122.559 21.9489C122.656 22.0238 122.731 22.1636 122.731 22.3355C122.731 22.5291 122.581 22.6795 122.367 22.7438V22.7655C122.538 22.8293 122.635 22.9585 122.688 23.1949C122.742 23.4634 122.774 23.571 122.818 23.6353H122.377C122.323 23.571 122.291 23.4101 122.237 23.2054C122.205 23.0123 122.098 22.9263 121.872 22.9263H121.679V23.6359V23.6353ZM121.689 22.6362H121.882C122.108 22.6362 122.29 22.5613 122.29 22.3788C122.29 22.2174 122.173 22.1092 121.914 22.1092C121.807 22.1092 121.732 22.1203 121.689 22.1319V22.6362Z" fill="white"/>
<path d="M54.5373 4.88004C54.2846 4.63316 53.9813 4.50761 53.6179 4.50761C53.2544 4.50761 52.9421 4.63316 52.6989 4.88004C52.4552 5.12692 52.336 5.44343 52.336 5.8206V12.1191C51.0858 11.0857 49.643 10.5645 48.0019 10.5645C46.0944 10.5645 44.4633 11.2535 43.1119 12.6361C41.7604 14.014 41.0894 15.6809 41.0894 17.6359C41.0894 19.5909 41.7651 21.2531 43.1119 22.6357C44.4633 24.0136 46.0902 24.7072 48.0019 24.7072C49.9136 24.7072 51.5226 24.0183 52.892 22.6357C54.2435 21.2715 54.9145 19.6051 54.9145 17.6359V5.8206C54.9145 5.44343 54.7905 5.12692 54.5373 4.88004ZM51.9957 19.3398V19.3493C51.7705 19.8847 51.4624 20.3547 51.0721 20.7551C50.6817 21.1602 50.2217 21.4767 49.6979 21.7141C49.1693 21.9515 48.6086 22.0681 48.0067 22.0681C47.4048 22.0681 46.8303 21.9515 46.3017 21.7141C45.7732 21.4767 45.3179 21.1602 44.9323 20.7598C44.5462 20.3595 44.2386 19.8894 44.0134 19.354C43.7881 18.8138 43.6731 18.2415 43.6731 17.6359C43.6731 17.0303 43.7881 16.458 44.0134 15.9178C44.2386 15.3776 44.5467 14.9123 44.9323 14.5119C45.3184 14.1116 45.7779 13.7951 46.3017 13.5577C46.8303 13.3203 47.3958 13.2037 48.0067 13.2037C48.6175 13.2037 49.1693 13.3203 49.6979 13.5577C50.2265 13.7951 50.6817 14.1116 51.0721 14.5167C51.4624 14.9218 51.7705 15.3918 51.9957 15.9225C52.221 16.458 52.336 17.0261 52.336 17.6311C52.336 18.2362 52.221 18.8091 51.9957 19.3398Z" fill="white"/>
<path d="M111.647 14.9218C111.311 14.0836 110.8 13.325 110.129 12.6451L110.121 12.6403C108.755 11.2624 107.123 10.5688 105.23 10.5688C103.338 10.5688 101.691 11.2577 100.34 12.6403C98.9883 14.0182 98.3179 15.6851 98.3179 17.6401C98.3179 19.5951 98.9936 21.2573 100.34 22.6399C101.691 24.0178 103.319 24.7114 105.23 24.7114C106.967 24.7114 108.47 24.1391 109.748 22.9939C109.995 22.7333 110.121 22.4168 110.121 22.0486C110.121 21.6803 110.001 21.3549 109.757 21.108C109.514 20.8611 109.206 20.7356 108.838 20.7356C108.517 20.7451 108.231 20.8521 107.988 21.0663C107.602 21.4013 107.184 21.6577 106.729 21.8254C106.274 21.9932 105.777 22.077 105.236 22.077C104.757 22.077 104.298 22.0027 103.862 21.8491C103.424 21.6956 103.016 21.4857 102.652 21.2114C102.284 20.9365 101.968 20.6111 101.697 20.2244C101.425 19.8425 101.219 19.4189 101.081 18.9536H110.857C111.219 18.9536 111.523 18.8281 111.776 18.5812C112.029 18.3343 112.153 18.0178 112.153 17.6406C112.153 16.6631 111.982 15.7553 111.648 14.9218H111.647ZM101.071 16.3276C101.204 15.8666 101.406 15.443 101.678 15.0569C101.949 14.6749 102.271 14.3447 102.638 14.0699C103.011 13.795 103.415 13.5856 103.86 13.4321C104.306 13.2786 104.76 13.2042 105.23 13.2042C105.7 13.2042 106.154 13.2786 106.595 13.4321C107.036 13.5856 107.441 13.795 107.804 14.0699C108.172 14.3447 108.493 14.6702 108.764 15.0569C109.04 15.4388 109.247 15.8624 109.39 16.3276H101.07H101.071Z" fill="white"/>
<path d="M123.66 11.4534C123.43 11.2255 123.141 11.0483 122.791 10.918C122.442 10.7877 122.061 10.6991 121.642 10.6479C121.229 10.5967 120.838 10.5735 120.476 10.5735C119.652 10.5735 118.88 10.7086 118.154 10.9786C117.428 11.2487 116.757 11.6349 116.141 12.1376V11.8865C116.141 11.5236 116.017 11.216 115.764 10.9602C115.512 10.7043 115.213 10.574 114.859 10.574C114.506 10.574 114.192 10.7043 113.94 10.9602C113.687 11.216 113.563 11.5283 113.563 11.8865V23.3995C113.563 23.7625 113.687 24.07 113.94 24.3258C114.192 24.5817 114.496 24.712 114.859 24.712C115.223 24.712 115.516 24.5817 115.764 24.3258C116.017 24.07 116.141 23.7577 116.141 23.3995V17.6406C116.141 17.0261 116.256 16.449 116.481 15.9088C116.706 15.3686 117.015 14.9034 117.405 14.503C117.796 14.1026 118.256 13.7861 118.779 13.5577C119.308 13.325 119.869 13.2085 120.471 13.2085C121.074 13.2085 121.642 13.3155 122.163 13.525C122.369 13.6183 122.549 13.6648 122.705 13.6648C122.884 13.6648 123.054 13.6321 123.21 13.5624C123.366 13.4928 123.505 13.3994 123.62 13.2786C123.735 13.1578 123.826 13.018 123.895 12.855C123.964 12.6968 124.001 12.5243 124.001 12.3381C124.001 11.9751 123.886 11.6818 123.656 11.4534H123.661H123.66Z" fill="white"/>
<path d="M69.6943 14.9266C69.3588 14.0931 68.8577 13.3298 68.1825 12.6408C66.8178 11.263 65.1862 10.5693 63.2924 10.5693C61.3986 10.5693 59.7538 11.2582 58.4023 12.6408C57.0508 14.0187 56.3804 15.6857 56.3804 17.6406C56.3804 19.5956 57.0561 21.2578 58.4023 22.6404C59.7538 24.0183 61.3807 24.712 63.2924 24.712C65.2041 24.712 66.813 24.023 68.1825 22.6404C69.534 21.2763 70.205 19.6099 70.205 17.6406C70.1955 16.6631 70.0256 15.76 69.6949 14.9266H69.6943ZM67.2862 19.3398V19.3493C67.061 19.8847 66.7529 20.3547 66.3625 20.7551C65.9722 21.1602 65.5122 21.4767 64.9884 21.7141C64.4646 21.9515 63.8991 22.0681 63.2972 22.0681C62.6953 22.0681 62.1208 21.9515 61.5922 21.7141C61.0637 21.4767 60.6084 21.1602 60.2228 20.7598C59.8367 20.3595 59.5291 19.8894 59.3039 19.354C59.0786 18.8138 58.9636 18.2415 58.9636 17.6359C58.9636 17.0303 59.0786 16.4579 59.3039 15.9178C59.5291 15.3776 59.8372 14.9123 60.2228 14.5119C60.6089 14.1116 61.0684 13.795 61.5922 13.5577C62.1208 13.3203 62.6863 13.2037 63.2972 13.2037C63.908 13.2037 64.4598 13.3203 64.9884 13.5577C65.5169 13.795 65.9722 14.1116 66.3625 14.5167C66.7529 14.9218 67.061 15.3918 67.2862 15.9225C67.5115 16.4579 67.6265 17.0261 67.6265 17.6311C67.6265 18.2362 67.5115 18.8091 67.2862 19.3398Z" fill="white"/>
<path d="M97.3429 11.8817C97.3429 11.705 97.306 11.5373 97.2374 11.379C97.1683 11.2208 97.0765 11.0768 96.9615 10.9554C96.8465 10.8346 96.7089 10.7365 96.5527 10.6716C96.3966 10.6067 96.2267 10.5693 96.0474 10.5693C95.7899 10.5693 95.5599 10.6347 95.3579 10.7697L87.9769 15.6814V5.83009C87.9769 5.45766 87.8529 5.1459 87.6003 4.88953C87.3476 4.63368 87.049 4.50339 86.695 4.50339C86.3411 4.50339 86.0288 4.63368 85.7756 4.88953C85.5229 5.14537 85.3989 5.45766 85.3989 5.83009V23.3811C85.3989 23.744 85.5229 24.0563 85.7756 24.3169C86.0283 24.5775 86.3316 24.7078 86.695 24.7078C87.0585 24.7078 87.3523 24.5775 87.6003 24.3169C87.8529 24.0563 87.9769 23.744 87.9769 23.3811V18.8233L89.4845 17.8131L95.188 24.3633C95.418 24.5912 95.7076 24.703 96.0521 24.703C96.2315 24.703 96.4013 24.6703 96.5575 24.6007C96.7136 24.5353 96.8518 24.4377 96.9663 24.3169C97.0813 24.1961 97.1731 24.0563 97.2422 23.8933C97.3113 23.735 97.3477 23.5625 97.3477 23.3906C97.3477 23.0461 97.2285 22.7385 96.989 22.469L91.6806 16.3567L96.8508 12.921C97.1815 12.6931 97.3424 12.3439 97.3424 11.8733V11.8828L97.3429 11.8817Z" fill="white"/>
<path d="M75.4902 14.503C75.8853 14.1026 76.3453 13.7861 76.8739 13.5577C77.4025 13.325 77.9632 13.2084 78.5651 13.2084C79.1074 13.2084 79.6085 13.3018 80.0728 13.4875C80.5322 13.6737 80.9737 13.9485 81.3915 14.3067C81.6395 14.5067 81.9201 14.609 82.2324 14.609C82.6048 14.609 82.9081 14.4834 83.1519 14.2318C83.3956 13.9802 83.5148 13.6637 83.5148 13.2865C83.5148 12.9093 83.3676 12.5601 83.069 12.2906C81.8004 11.1453 80.298 10.5724 78.5651 10.5724C76.6576 10.5724 75.0265 11.2614 73.675 12.644C72.3235 14.0219 71.6531 15.6888 71.6531 17.6438C71.6531 19.5988 72.3288 21.261 73.675 22.6436C75.0265 24.0215 76.6534 24.7151 78.5651 24.7151C80.2933 24.7151 81.7961 24.1428 83.069 22.997C83.3402 22.718 83.4784 22.3967 83.4784 22.0243C83.4784 21.6519 83.3586 21.3306 83.1155 21.0837C82.8718 20.8368 82.5642 20.7113 82.1965 20.7113C81.8842 20.7208 81.6126 20.8136 81.3831 20.9904C80.9695 21.3533 80.5375 21.6234 80.0733 21.8048C79.6138 21.9863 79.1127 22.0749 78.5656 22.0749C77.9637 22.0749 77.403 21.9583 76.8744 21.7257C76.3459 21.4931 75.8864 21.1766 75.4908 20.7809C75.0956 20.3853 74.7828 19.9105 74.5576 19.3751C74.3323 18.8349 74.2173 18.2578 74.2173 17.6433C74.2173 17.0287 74.3323 16.4516 74.5576 15.9114C74.7828 15.3713 75.0951 14.906 75.4908 14.5056V14.5009L75.4902 14.503Z" fill="white"/>
</g>
<defs>
<clipPath id="clip0_15013_11545">
<rect width="123.12" height="28" fill="white" transform="translate(0.880615 0.592407)"/>
</clipPath>
</defs>
</svg>
