<svg width="65" height="16" viewBox="0 0 65 16" fill="none" xmlns="http://www.w3.org/2000/svg">
<g clip-path="url(#clip0_8572_15875)">
<path d="M19.1866 12.0675V4.16584H24.5052V5.54308H20.8552V7.42573H24.2313V8.80297H20.8552V10.6894H24.5204V12.0666H19.1861L19.1866 12.0675Z" fill="white"/>
<path d="M28.2751 10.7711C28.2339 10.7787 28.175 10.7896 28.098 10.804C28.021 10.8183 27.944 10.825 27.8666 10.825C27.7559 10.825 27.6592 10.8082 27.5754 10.7749C27.4917 10.7416 27.4269 10.6831 27.3806 10.5993C27.3344 10.5159 27.3112 10.398 27.3112 10.2463V7.37603H28.4249V6.14157H27.3112V4.72179H25.6695V6.14157H24.8599V7.37603H25.6695V10.4624C25.6669 10.8507 25.7477 11.1721 25.9122 11.4269C26.0767 11.6817 26.3073 11.8691 26.6039 11.99C26.9006 12.1109 27.2468 12.1635 27.6428 12.1484C27.8561 12.1408 28.037 12.1193 28.1864 12.0848C28.3353 12.0502 28.451 12.0199 28.5331 11.9942L28.2751 10.7711Z" fill="white"/>
<path d="M30.9393 8.64124V12.0671H29.2976V4.16584H30.893V7.1865H30.9625C31.0958 6.83692 31.3117 6.56232 31.61 6.36268C31.9079 6.16347 32.2819 6.06365 32.7317 6.06365C33.1428 6.06365 33.5017 6.15294 33.8088 6.33194C34.116 6.51094 34.355 6.76659 34.5258 7.09974C34.6966 7.43289 34.7808 7.8309 34.7782 8.29377V12.0671H33.1365V8.58691C33.139 8.22175 33.0473 7.93745 32.8609 7.73445C32.6745 7.53144 32.4145 7.42952 32.0804 7.42952C31.857 7.42952 31.6596 7.47711 31.4888 7.57229C31.318 7.66748 31.1842 7.80563 31.0879 7.98715C30.9915 8.16868 30.9419 8.38643 30.9393 8.64124Z" fill="white"/>
<path d="M41.3688 9.07336C41.3688 8.56921 41.2982 8.12867 41.1568 7.75214C41.0154 7.37519 40.8181 7.06225 40.5652 6.8125C40.3119 6.56316 40.0166 6.37574 39.6787 6.25107C39.3408 6.1264 38.9765 6.06407 38.586 6.06407C38.0054 6.06407 37.4996 6.19253 37.0692 6.44986C36.6388 6.7072 36.3056 7.06604 36.0691 7.52639C35.8326 7.98673 35.7144 8.52162 35.7144 9.13148C35.7144 9.74134 35.8326 10.2973 36.0691 10.7538C36.3056 11.2104 36.6426 11.5629 37.081 11.811C37.519 12.0591 38.0428 12.1833 38.6517 12.1833C39.1397 12.1833 39.571 12.1079 39.9446 11.9576C40.3187 11.8072 40.6241 11.5962 40.8618 11.325C41.0996 11.0537 41.2569 10.7353 41.3339 10.3702L39.8154 10.2699C39.7591 10.419 39.6766 10.5454 39.5689 10.6481C39.4612 10.7509 39.3312 10.8284 39.1797 10.8798C39.0282 10.9312 38.8612 10.9569 38.6786 10.9569C38.4034 10.9569 38.1661 10.8992 37.9654 10.7833C37.7651 10.6675 37.6103 10.5028 37.5009 10.2897C37.3915 10.0762 37.3372 9.82305 37.3372 9.52949V9.5257H41.3688V9.07336ZM37.9519 7.46279C38.1434 7.34823 38.3639 7.29095 38.6129 7.29095C38.862 7.29095 39.0619 7.34318 39.2432 7.44721C39.4246 7.55124 39.5664 7.69486 39.669 7.87723C39.7717 8.06002 39.823 8.26934 39.823 8.50604H37.3393C37.3494 8.29335 37.4033 8.09834 37.503 7.92145C37.6111 7.72981 37.7605 7.57735 37.9519 7.46279Z" fill="white"/>
<path d="M42.3437 12.0675V6.14157H43.9354V7.17555H43.9973C44.105 6.80786 44.2863 6.52947 44.5409 6.34036C44.795 6.15125 45.0883 6.05691 45.4194 6.05691C45.5014 6.05691 45.5902 6.06196 45.6853 6.07249C45.7804 6.08302 45.8637 6.09692 45.9361 6.11503V7.57356C45.8591 7.55039 45.7522 7.52976 45.6163 7.51165C45.48 7.49354 45.3554 7.48469 45.2427 7.48469C45.0012 7.48469 44.7857 7.53692 44.5972 7.64095C44.4083 7.74498 44.2594 7.88986 44.15 8.07518C44.0406 8.26049 43.9863 8.47403 43.9863 8.71578V12.0683H42.3446L42.3437 12.0675Z" fill="white"/>
<path d="M48.3293 4.16584V12.0671H46.6875V4.16584H48.3293Z" fill="white"/>
<path d="M49.5503 12.0675V6.14157H51.1921V12.0675H49.5503Z" fill="white"/>
<path d="M54.0523 8.64124V12.0671H52.4105V6.14114H53.9753V7.1865H54.0447C54.1756 6.84198 54.3956 6.56864 54.7036 6.36647C55.012 6.16473 55.3857 6.06365 55.8253 6.06365C56.2364 6.06365 56.5949 6.15378 56.9008 6.33362C57.2067 6.51388 57.4444 6.77038 57.6139 7.10311C57.7835 7.43626 57.8681 7.833 57.8681 8.29335V12.0666H56.2263V8.58648C56.2288 8.22385 56.1363 7.9404 55.9486 7.73571C55.761 7.53144 55.5026 7.4291 55.174 7.4291C54.9531 7.4291 54.7583 7.47669 54.59 7.57187C54.4217 7.66706 54.2905 7.8052 54.197 7.98673C54.1032 8.16826 54.0548 8.38643 54.0523 8.64124Z" fill="white"/>
<path d="M62.7504 12.0675H64.6737L62.3663 8.7082L64.5618 6.14114H62.6772L60.7809 8.39064H60.6921V4.16584H59.0504V12.0675H60.6921V10.1857L61.1373 9.67733L62.7504 12.0675Z" fill="white"/>
<path d="M50.3716 5.39861C50.8319 5.39861 51.2051 5.02506 51.2051 4.56427C51.2051 4.10347 50.8319 3.72992 50.3716 3.72992C49.9113 3.72992 49.5381 4.10347 49.5381 4.56427C49.5381 5.02506 49.9113 5.39861 50.3716 5.39861Z" fill="white"/>
<path d="M9.45127 7.29558C9.25226 7.29558 9.05282 7.21935 8.90093 7.06731C8.59673 6.76322 8.59673 6.2696 8.90093 5.96551L10.9138 3.95062C11.2176 3.64653 11.7107 3.64653 12.0145 3.95062C12.3187 4.2547 12.3187 4.74832 12.0145 5.05241L10.0016 7.06731C9.84972 7.21935 9.65029 7.29558 9.45127 7.29558Z" fill="#38FF9C"/>
<path d="M7.99212 16C3.5852 16 0 12.4112 0 8.00021C0 3.58925 3.5852 0 7.99212 0C12.399 0 15.9842 3.58883 15.9842 8.00021C15.9842 12.4116 12.399 16 7.99212 16ZM7.99212 1.55835C4.44395 1.55835 1.55677 4.44802 1.55677 8.00021C1.55677 11.5524 4.44353 14.4421 7.99212 14.4421C11.5407 14.4421 14.4275 11.5524 14.4275 8.00021C14.4275 4.44802 11.5403 1.55835 7.99212 1.55835Z" fill="#38FF9C"/>
<path d="M4.51968 12.2166C4.32067 12.2166 4.12123 12.1404 3.96934 11.9883C3.66556 11.6842 3.66514 11.1906 3.96934 10.8865L5.9822 8.87162C6.28598 8.56753 6.7791 8.56711 7.08288 8.87162C7.38666 9.17613 7.38708 9.66932 7.08288 9.97341L5.07002 11.9883C4.91813 12.1404 4.71869 12.2166 4.51968 12.2166Z" fill="#38FF9C"/>
<path d="M7.81793 5.19519C6.42651 5.29501 5.30143 6.41533 5.20718 7.809C5.20214 7.88439 5.16932 7.95557 5.11546 8.00906L3.98491 9.14244C3.92096 9.20688 3.8103 9.17782 3.78716 9.08979C3.69543 8.73895 3.63863 8.36242 3.63863 7.988C3.63863 5.57888 5.59638 3.61916 8.00306 3.61916C8.3952 3.61916 8.77555 3.67138 9.1374 3.76867C9.21061 3.78847 9.23459 3.88028 9.18115 3.93419L8.01274 5.10464C7.96056 5.15686 7.89156 5.18972 7.81793 5.19519Z" fill="#38FF9C"/>
<path d="M10.8574 7.95978L12.0267 6.79017C12.0801 6.73669 12.1723 6.76069 12.192 6.83398C12.2896 7.19619 12.3414 7.57693 12.3414 7.96946C12.3414 10.3786 10.3837 12.3383 7.97697 12.3383C7.60335 12.3383 7.2272 12.2814 6.87629 12.1896C6.78836 12.1665 6.75975 12.0561 6.8237 11.9917L7.95593 10.86C8.00937 10.8065 8.08048 10.7736 8.15579 10.7682C9.54847 10.6738 10.6672 9.5476 10.767 8.15478C10.7724 8.08107 10.8052 8.012 10.8574 7.95978Z" fill="#38FF9C"/>
</g>
<defs>
<clipPath id="clip0_8572_15875">
<rect width="65" height="16" fill="white"/>
</clipPath>
</defs>
</svg>
