<svg xmlns="http://www.w3.org/2000/svg" width="24" height="25" viewBox="0 0 24 25" fill="none">
  <path d="M4.75 8.3335H7.25M12.75 8.3335H19.25M12.25 8.3335C12.25 9.57614 11.2426 10.5835 10 10.5835C8.75736 10.5835 7.75 9.57614 7.75 8.3335C7.75 7.09086 8.75736 6.0835 10 6.0835C11.2426 6.0835 12.25 7.09086 12.25 8.3335Z" stroke="white" stroke-opacity="0.8" stroke-width="1.5" stroke-linecap="round" stroke-linejoin="round"/>
  <path d="M4.75 16.3335H12.25M17.75 16.3335H19.25M17.25 16.3335C17.25 17.5761 16.2426 18.5835 15 18.5835C13.7574 18.5835 12.75 17.5761 12.75 16.3335C12.75 15.0909 13.7574 14.0835 15 14.0835C16.2426 14.0835 17.25 15.0909 17.25 16.3335Z" stroke="white" stroke-opacity="0.8" stroke-width="1.5" stroke-linecap="round" stroke-linejoin="round"/>
</svg>