<svg width="64" height="64" viewBox="0 0 64 64" fill="none" xmlns="http://www.w3.org/2000/svg">
<rect width="64" height="64" fill="#F2EBE1"/>
<path d="M47.229 18H42.1464C41.0863 18 40.2132 18.6573 39.9637 19.7215L35.4113 35.904H34.9124L29.5492 19.6276C29.2374 18.6573 28.3331 18.0939 27.3665 18.0939H21.5667C21.3173 18 21.1614 18.2504 21.2549 18.5008L28.8008 40.1296C29.0503 40.693 29.2997 40.8495 29.9233 40.8495H33.7275C32.1996 46.1393 24.0924 43.5413 22.0656 42.9779C21.7538 42.884 21.4108 43.2909 21.5044 43.6352L23.2817 48.8312C23.3753 49.0816 23.5312 49.2381 23.7806 49.2381C24.7472 49.4885 28.146 50.4588 31.8878 49.7389C36.908 48.6747 38.9348 44.0422 39.6831 42.258C40.6497 39.9731 46.8237 20.9423 47.6344 18.5008C47.6344 18.2504 47.4785 18 47.229 18Z" fill="#1E3B3A"/>
<path d="M27.0547 40.2235L24.9343 34.3702C24.7784 33.8068 24.2171 33.4625 23.6247 33.4625H18.4798C17.2637 33.4625 16.3594 34.6833 16.7648 35.904C17.2637 37.2812 17.482 38.0324 17.9809 39.3157C18.2927 40.2235 19.1034 40.8495 20.1012 40.8495H26.6805C26.9923 40.8808 27.2106 40.5365 27.0547 40.2235Z" fill="#1E3B3A"/>
</svg>
