<svg width="64" height="64" viewBox="0 0 64 64" fill="none" xmlns="http://www.w3.org/2000/svg">
<rect width="64" height="64" fill="white"/>
<g clip-path="url(#clip0_32_721)">
<path d="M22.9561 32.7596C27.9025 32.7596 31.9123 28.7498 31.9123 23.8034C31.9123 18.8572 27.9025 14.8474 22.9561 14.8474C18.0098 14.8474 14 18.8572 14 23.8034C14 28.7498 18.0098 32.7596 22.9561 32.7596Z" fill="#29ADFF"/>
<path d="M40.9809 32.7596C45.9273 32.7596 49.9371 28.7498 49.9371 23.8034C49.9371 18.8572 45.9273 14.8474 40.9809 14.8474C36.0346 14.8474 32.0248 18.8572 32.0248 23.8034C32.0248 28.7498 36.0346 32.7596 40.9809 32.7596Z" fill="#29ADFF"/>
<path d="M22.9561 50.6748C27.9025 50.6748 31.9123 46.6651 31.9123 41.7188C31.9123 36.7724 27.9025 32.7626 22.9561 32.7626C18.0098 32.7626 14 36.7724 14 41.7188C14 46.6651 18.0098 50.6748 22.9561 50.6748Z" fill="#29ADFF"/>
<path d="M40.9809 50.6748C45.9273 50.6748 49.9371 46.6651 49.9371 41.7188C49.9371 36.7724 45.9273 32.7626 40.9809 32.7626C36.0346 32.7626 32.0248 36.7724 32.0248 41.7188C32.0248 46.6651 36.0346 50.6748 40.9809 50.6748Z" fill="#29ADFF"/>
<path d="M40.9839 28.2809C43.4571 28.2809 45.462 26.2761 45.462 23.8029C45.462 21.3297 43.4571 19.3248 40.9839 19.3248C38.5107 19.3248 36.5058 21.3297 36.5058 23.8029C36.5058 26.2761 38.5107 28.2809 40.9839 28.2809Z" fill="#052E66"/>
</g>
<defs>
<clipPath id="clip0_32_721">
<rect width="36" height="36.9231" fill="white" transform="translate(14 14)"/>
</clipPath>
</defs>
</svg>
