<svg width="112" height="25" viewBox="0 0 112 25" fill="none" xmlns="http://www.w3.org/2000/svg">
<path d="M25.3885 10.0921L25.3549 10.0025L21.9629 1.15458C21.8942 0.980849 21.7721 0.833472 21.6141 0.733783C21.4962 0.658323 21.3623 0.611528 21.2231 0.597149C21.0839 0.582769 20.9432 0.601206 20.8124 0.65098C20.6816 0.700754 20.5642 0.780482 20.4698 0.883774C20.3753 0.987065 20.3064 1.11105 20.2685 1.24578L17.9789 8.25532H8.70699L6.41741 1.24578C6.37922 1.11125 6.31012 0.987499 6.21562 0.884406C6.12113 0.781312 6.00385 0.701726 5.87314 0.651992C5.74244 0.602258 5.60192 0.583753 5.46279 0.597954C5.32367 0.612155 5.18978 0.658667 5.07182 0.733783C4.91384 0.833472 4.79168 0.980849 4.72302 1.15458L1.33265 10.0041L1.29745 10.0921C0.809335 11.3678 0.749201 12.7676 1.12611 14.0804C1.50302 15.3933 2.29655 16.548 3.38703 17.3705L3.39984 17.3801L3.42863 17.4025L8.58859 21.2696L11.1486 23.204L12.7038 24.38C12.8862 24.5178 13.1087 24.5924 13.3374 24.5924C13.566 24.5924 13.7885 24.5178 13.971 24.38L15.5261 23.204L18.0861 21.2696L23.2829 17.3801L23.2973 17.3689C24.3877 16.5467 25.1813 15.3923 25.5585 14.0798C25.9357 12.7673 25.876 11.3678 25.3885 10.0921Z" fill="white"/>
<path d="M45.6954 9.63448H49.3402C48.7322 5.75931 45.377 3.06013 41.0107 3.06013C35.8443 3.06013 31.9675 6.85851 31.9675 13.2201C31.9675 19.468 35.6699 23.3432 41.1163 23.3432C46.0042 23.3432 49.5034 20.1992 49.5034 15.1096V12.7385H41.4923V15.5336H46.0426C45.985 18.3496 44.105 20.132 41.1355 20.132C37.8299 20.132 35.5643 17.6552 35.5643 13.1817C35.5643 8.73689 37.8683 6.26971 41.0587 6.26971C43.4394 6.26971 45.0682 7.5417 45.6954 9.63448Z" fill="white"/>
<path d="M51.9129 23.0728H55.4025V8.27291H51.9129V23.0728ZM53.6729 5.92093C54.7817 5.92093 55.6873 5.07133 55.6873 4.03134C55.6873 2.99135 54.7817 2.13216 53.6729 2.13216C52.5641 2.13216 51.6489 2.98015 51.6489 4.03134C51.6489 5.08253 52.5481 5.92093 53.6665 5.92093H53.6729Z" fill="white"/>
<path d="M65.852 8.27292H62.9304V4.71774H59.4409V8.27292H57.3401V10.9721H59.4409V19.2056C59.4217 21.9912 61.4473 23.3656 64.068 23.284C64.7662 23.2701 65.4585 23.1531 66.1224 22.9368L65.5336 20.2072C65.2001 20.2938 64.8574 20.3394 64.5128 20.3432C63.6344 20.3432 62.9304 20.0344 62.9304 18.6264V10.9641H65.852V8.27292Z" fill="white"/>
<path d="M68.553 23.0728H80.8249V20.0744H72.1305V3.32895H68.553V23.0728Z" fill="white"/>
<path d="M87.5096 23.372C89.8327 23.372 91.2199 22.2824 91.8567 21.0392H91.9719V23.0728H95.3319V13.1625C95.3319 9.2489 92.1415 8.07291 89.3159 8.07291C86.2024 8.07291 83.812 9.46009 83.0408 12.1593L86.3 12.6233C86.6456 11.6105 87.6296 10.7433 89.34 10.7433C90.9607 10.7433 91.8471 11.5721 91.8471 13.0281V13.0857C91.8471 14.0873 90.7959 14.1369 88.1832 14.4153C85.3112 14.7241 82.564 15.5816 82.564 18.9176C82.5544 21.8296 84.684 23.372 87.5096 23.372ZM88.6568 20.812C87.2008 20.812 86.1592 20.1464 86.1592 18.8648C86.1592 17.524 87.3256 16.9656 88.8792 16.7432C89.7959 16.6184 91.6279 16.3864 92.0791 16.0216V17.7656C92.0887 19.4088 90.7575 20.8072 88.6568 20.8072V20.812Z" fill="white"/>
<path d="M97.9014 23.0728H101.333V20.74H101.535C102.085 21.82 103.233 23.3336 105.778 23.3336C109.268 23.3336 111.88 20.5656 111.88 15.6889C111.88 10.7529 109.191 8.07291 105.769 8.07291C103.156 8.07291 102.066 9.6441 101.535 10.7145H101.388V3.32895H97.9014V23.0728ZM101.324 15.6697C101.324 12.7897 102.557 10.9353 104.804 10.9353C107.127 10.9353 108.324 12.9113 108.324 15.6697C108.324 18.428 107.109 20.4696 104.804 20.4696C102.577 20.4696 101.324 18.5416 101.324 15.6697Z" fill="white"/>
</svg>
