<svg width="24" height="25" viewBox="0 0 24 25" fill="none" xmlns="http://www.w3.org/2000/svg">
<g id="globe-2">
<path id="Vector" d="M9.52037 19.1463C13.283 20.5157 17.4433 18.5757 18.8128 14.8131C20.1823 11.0506 18.2423 6.8902 14.4797 5.52073M9.52037 19.1463C5.75778 17.7768 3.81778 13.6164 5.18725 9.85386C6.55672 6.09126 10.7171 4.15126 14.4797 5.52073M9.52037 19.1463C10.6881 19.5713 13.5149 17.6737 15.054 13.4451C16.5931 9.21644 15.6474 5.94574 14.4797 5.52073M9.52037 19.1463C8.35267 18.7213 7.40691 15.4505 8.946 11.2219C10.4851 6.99331 13.312 5.09572 14.4797 5.52073M5.42216 9.93936L18.5779 14.7276" stroke="white" stroke-opacity="0.8" stroke-width="1.5" stroke-linecap="round" stroke-linejoin="round"/>
</g>
</svg>
