<svg width="64" height="64" viewBox="0 0 64 64" fill="none" xmlns="http://www.w3.org/2000/svg">
<rect width="64" height="64" fill="white"/>
<g clip-path="url(#clip0_47_393)">
<path d="M21.875 27.05C17.2917 15.6833 19.5833 21.3666 21.875 27.05V27.05Z" fill="#66AACC"/>
<path d="M15 31.0375V19.9L32.2562 10L49.65 20.0375V27.5312L39.75 33.375L29.7125 27.6L32.325 26.0875L39.6125 30.35L46.9 26.0875V21.6188L32.325 13.025L17.75 21.55V29.525L15 31.0375Z" fill="#006DCC"/>
<path d="M22.0125 24.025L32.2157 18.1027L42.0594 23.7598L39.5438 25.2625L32.325 21L22.0125 26.9125V24.025Z" fill="#66AACC"/>
<path d="M49.65 32.55V43.6875L32.3937 53.5875L15 43.55V36.0563L24.9 30.2125L34.9375 35.9875L32.325 37.5L25.0375 33.2375L17.75 37.5V41.9688L32.325 50.5625L46.9 42.0375V34.0625L49.65 32.55Z" fill="#006DCC"/>
<path d="M42.4718 39.5625L32.2687 45.4848L22.425 39.8277L24.9406 38.325L32.1593 42.5875L42.4718 36.675V39.5625Z" fill="#66AACC"/>
</g>
<defs>
<clipPath id="clip0_47_393">
<rect width="34.375" height="44" fill="white" transform="translate(15 10)"/>
</clipPath>
</defs>
</svg>
