<svg width="64" height="64" viewBox="0 0 64 64" fill="none" xmlns="http://www.w3.org/2000/svg">
<rect width="64" height="64" fill="white"/>
<path fill-rule="evenodd" clip-rule="evenodd" d="M35.9249 24.5413C35.6166 24.5413 35.3664 24.2919 35.3664 23.984C35.3664 23.6757 35.6166 23.4263 35.9249 23.4263C36.2336 23.4263 36.4834 23.6757 36.4834 23.984C36.4834 24.2919 36.2336 24.5413 35.9249 24.5413Z" fill="#4E657F"/>
<path fill-rule="evenodd" clip-rule="evenodd" d="M47.2726 24.5346C50.1768 25.0747 51.8873 25.879 51.9875 25.9786C52.0872 26.0786 51.5642 26.249 51.3643 26.249C51.3643 26.249 47.3905 24.7343 42.531 25.1294L38.8784 24.6911C40.2121 24.3342 40.4978 24.0786 40.9318 23.5797C40.9318 23.5797 44.3689 23.9946 47.2726 24.5346Z" fill="#4E657F"/>
<path fill-rule="evenodd" clip-rule="evenodd" d="M24.1566 27.2538C24.1566 24.9369 24.7444 24.3026 23.7741 21.1743C19.2402 17.0286 13.624 11.8831 13.5048 12.002C13.307 12.1996 14.0378 14.1897 14.3045 14.6767C14.5707 15.1636 23.0046 22.6277 22.8162 22.8154C22.6283 23.0035 14.8531 15.865 14.8531 15.865C14.8531 15.865 12 15.129 12 15.583C12 16.037 22.8632 23.9116 22.7222 24.0523C22.5813 24.1931 14.3358 18.4635 14.3358 18.4635C14.3358 18.4635 12.1253 18.573 12.1253 18.8862C12.1253 19.1994 22.8084 25.062 22.6596 25.2106C22.5108 25.3596 14.947 21.4374 14.947 21.4374C14.947 21.4374 12.8466 21.3596 12.8466 21.7823C12.8466 22.205 22.7614 26.189 22.5969 26.3536C22.4325 26.5179 16.4205 24.068 16.4205 24.068C16.4205 24.068 14.4454 24.0367 14.4454 24.4907C14.4454 24.9447 22.5186 27.3086 22.5186 27.465C22.5186 27.6214 17.0631 26.1812 17.0631 26.1812C17.0631 26.1812 14.7929 26.6331 15.1799 27.02C15.5875 27.4267 22.9263 28.1853 22.9263 28.3886C22.9263 28.592 18.5758 28.0449 18.5758 28.0449C18.5758 28.0449 17.0792 28.7957 17.0792 29.1242C17.0792 29.4531 23.1612 29.6251 23.0046 29.7819C22.8475 29.9383 19.6499 29.954 19.6499 29.954C19.6499 29.954 18.2782 30.8385 18.5366 31.0966C18.7955 31.3551 23.0516 30.5097 22.9498 30.6113C22.8475 30.7134 19.8457 31.5391 19.8457 31.7268C19.8457 31.9149 21.1626 32.173 21.5154 32.173C21.8678 32.173 23.5491 31.2456 23.5491 31.3514C23.5491 31.4568 21.4095 32.9011 21.4095 33.1827C21.4095 33.4646 22.4498 33.316 22.5512 33.2852C22.7342 33.23 23.5725 32.5722 23.5725 32.6896C23.5725 32.8073 22.6262 33.6935 22.7733 33.8404C22.9201 33.9869 23.42 33.7581 23.42 33.7581C23.42 33.7581 24.2741 33.0559 24.4863 32.6797C24.8 32.124 24.1566 29.658 24.1566 27.2538Z" fill="#4E657F"/>
<path fill-rule="evenodd" clip-rule="evenodd" d="M21.7268 42.9864C22.456 48.8572 26.7273 52.3793 26.8609 52.3793C26.994 52.3793 26.8765 50.986 26.8765 50.986C26.8765 50.986 25.3404 49.452 24.7052 48.5361C24.0705 47.6203 23.3158 45.5989 23.3924 45.5227C23.4687 45.4462 23.9217 46.5559 24.6425 47.7845C25.3638 49.0136 26.8687 50.6102 27.0175 50.6102C27.1663 50.6102 26.8452 48.998 26.8452 48.998C26.8452 48.998 24.7365 46.9786 24.1566 45.8981C23.5767 44.8181 23.3335 43.2449 23.4044 43.2449C23.4749 43.2449 23.608 44.3641 24.3841 45.7026C25.1598 47.0412 27.1663 48.8411 27.2133 48.7942C27.2607 48.7473 27.339 47.6672 27.339 47.6672C27.339 47.6672 25.2068 46.0237 24.5251 44.8259C23.8429 43.6285 23.6863 41.7734 23.7959 41.7734C23.906 41.7734 23.9608 42.8769 24.5877 44.3171C25.2146 45.7574 27.6798 47.4363 27.7231 47.3931C27.766 47.3503 27.8014 46.2192 27.8014 46.1019C27.8014 45.9846 27.1428 45.7417 26.5863 45.3268C26.0299 44.9119 25.3873 44.1138 25.4735 44.1138C25.5596 44.1138 26.0299 44.6695 26.602 45.0453C27.1741 45.4207 28.158 45.9451 28.3929 45.9451C28.6282 45.9451 30.0333 45.3993 29.8981 45.2643C29.763 45.1292 27.6642 45.0292 25.9359 43.3033C24.2283 41.5984 24.1372 38.4546 24.2547 38.4546C24.3722 38.4546 24.4307 40.2031 25.2188 41.6824C26.0064 43.1622 27.1428 43.9022 27.1428 43.9022C27.1428 43.9022 27.2211 42.7283 27.9737 41.789C28.7923 40.767 31.5637 39.526 33.4131 36.8024C35.263 34.0783 35.9686 29.9898 36.9747 28.2232C37.8864 26.6232 39.139 25.5617 42.3058 25.2954L39.0096 24.7566V24.6236C40.0207 24.2421 40.3174 23.8959 40.6031 23.5954C40.0825 23.5321 39.2549 23.4077 38.853 23.2225C38.2413 22.941 37.6886 22.1239 35.7996 22.0169C31.8803 21.7946 29.8235 26.6508 29.8235 26.6508C29.6797 26.601 27.355 24.48 24.3536 21.7358C25.0539 24.0951 24.5329 25.3123 24.5329 27.6292C24.5329 30.0338 25.2657 32.3726 24.8626 33.0555C24.4538 33.7478 20.8539 35.9549 21.7268 42.9864ZM35.9249 24.7879C34.9275 24.7879 34.8321 24.0636 34.8321 23.9838C34.8321 23.9035 34.9275 23.1797 35.9249 23.1797C36.9228 23.1797 36.9885 23.9037 36.9885 23.984C36.9885 24.0639 36.9228 24.7879 35.9249 24.7879Z" fill="#4E657F"/>
</svg>
