<svg width="64" height="64" viewBox="0 0 64 64" fill="none" xmlns="http://www.w3.org/2000/svg">
<rect width="64" height="64" fill="#0B45D8"/>
<path d="M35.463 39.9258L38.6751 39.9342C38.6751 43.8697 35.5082 47.06 31.6015 47.06H30.9645C34.9339 45.4454 35.4341 41.5524 35.463 39.9258ZM32.0705 39.9171L32.1972 39.9174C32.1938 40.4875 32.1219 41.3906 31.7786 42.3082C31.8373 42.0254 31.8887 41.7064 31.9343 41.3456C31.9695 41.067 32.0149 40.5908 32.0705 39.9171ZM29.8225 31.2042L46.7168 31.2112C46.7168 35.1474 43.5506 38.3391 39.6432 38.3417L35.3527 38.3445C34.7292 34.3536 31.4464 32.0844 29.8225 31.2042ZM52.0654 22.4883C52.0654 26.4245 48.8992 29.6162 44.9919 29.6188L28.8985 29.6292L35.2677 23.4462V22.663C35.2677 22.5956 35.2352 22.5322 35.1858 22.4885L52.0654 22.4883Z" fill="white"/>
<path d="M35.463 39.9258L38.6751 39.9342C38.6751 43.8697 35.5082 47.06 31.6015 47.06H30.9645C34.9339 45.4454 35.4341 41.5524 35.463 39.9258ZM32.0705 39.9171L32.1972 39.9174C32.1938 40.4875 32.1219 41.3906 31.7786 42.3082C31.8373 42.0254 31.8887 41.7064 31.9343 41.3456C31.9695 41.067 32.0149 40.5908 32.0705 39.9171ZM29.8225 31.2042L46.7168 31.2112C46.7168 35.1474 43.5506 38.3391 39.6432 38.3417L35.3527 38.3445C34.7292 34.3536 31.4464 32.0844 29.8225 31.2042ZM52.0654 22.4883C52.0654 26.4245 48.8992 29.6162 44.9919 29.6188L28.8985 29.6292L35.2677 23.4462V22.663C35.2677 22.5956 35.2352 22.5322 35.1858 22.4885L52.0654 22.4883Z" fill="white"/>
<path d="M33.2684 39.1923C32.9546 33.6001 25.9713 31.0582 25.3029 30.7971C25.2757 30.7834 25.2757 30.7559 25.2894 30.7284L32.4909 23.4462V22.663C32.4909 22.5393 32.3818 22.4294 32.259 22.4294H18.9879V16.7273L14.0914 17.7578V18.4998H14.3642C14.3642 18.4998 15.5645 18.4998 15.5645 19.7089V22.4157H11.7727C11.7045 22.4157 11.6364 22.4844 11.6364 22.5531V24.2706H15.5781C15.5781 24.2706 15.5781 26.098 15.5781 28.2277V33.6001C15.5781 36.5267 17.4467 38.5602 20.7201 38.2855C21.4158 38.2305 22.0568 37.9557 22.6024 37.5984C22.8479 37.4336 22.9979 37.1725 22.9979 36.8702V35.9497C21.9341 36.6641 21.0338 36.6229 21.0338 36.6229C18.9607 36.6229 19.0016 33.9711 19.0016 33.9711V24.2706H28.5492L21.6749 31.2505C21.6613 32.1711 21.6476 32.8856 21.6476 32.8993C21.6476 32.9268 21.6613 32.9405 21.6886 32.9405C27.9899 34.0123 29.6948 38.1206 29.6948 39.3159C29.6948 39.3159 30.3768 45.128 24.6074 45.5264C24.6074 45.5264 20.8293 45.6913 20.161 44.1662C20.1337 44.1112 20.161 44.0563 20.2155 44.0288C20.8429 43.7402 21.2657 43.1769 21.2657 42.4212C21.2657 41.2945 20.5837 40.374 19.1516 40.374C17.9923 40.374 17.0375 41.2945 17.0375 42.4212C17.0375 42.4212 16.492 47.3127 24.5937 47.1753C33.8412 47.0104 33.2684 39.1923 33.2684 39.1923Z" fill="white"/>
<path d="M33.2684 39.1923C32.9546 33.6001 25.9713 31.0582 25.3029 30.7971C25.2757 30.7834 25.2757 30.7559 25.2894 30.7284L32.4909 23.4462V22.663C32.4909 22.5393 32.3818 22.4294 32.259 22.4294H18.9879V16.7273L14.0914 17.7578V18.4998H14.3642C14.3642 18.4998 15.5645 18.4998 15.5645 19.7089V22.4157H11.7727C11.7045 22.4157 11.6364 22.4844 11.6364 22.5531V24.2706H15.5781C15.5781 24.2706 15.5781 26.098 15.5781 28.2277V33.6001C15.5781 36.5267 17.4467 38.5602 20.7201 38.2855C21.4158 38.2305 22.0568 37.9557 22.6024 37.5984C22.8479 37.4336 22.9979 37.1725 22.9979 36.8702V35.9497C21.9341 36.6641 21.0338 36.6229 21.0338 36.6229C18.9607 36.6229 19.0016 33.9711 19.0016 33.9711V24.2706H28.5492L21.6749 31.2505C21.6613 32.1711 21.6476 32.8856 21.6476 32.8993C21.6476 32.9268 21.6613 32.9405 21.6886 32.9405C27.9899 34.0123 29.6948 38.1206 29.6948 39.3159C29.6948 39.3159 30.3768 45.128 24.6074 45.5264C24.6074 45.5264 20.8293 45.6913 20.161 44.1662C20.1337 44.1112 20.161 44.0563 20.2155 44.0288C20.8429 43.7402 21.2657 43.1769 21.2657 42.4212C21.2657 41.2945 20.5837 40.374 19.1516 40.374C17.9923 40.374 17.0375 41.2945 17.0375 42.4212C17.0375 42.4212 16.492 47.3127 24.5937 47.1753C33.8412 47.0104 33.2684 39.1923 33.2684 39.1923Z" fill="white"/>
</svg>
