<svg width="64" height="64" viewBox="0 0 64 64" fill="none" xmlns="http://www.w3.org/2000/svg">
<rect width="64" height="64" fill="#14202C"/>
<g clip-path="url(#clip0_47_374)">
<path d="M31.9771 44.2864C25.1835 44.2864 19.6592 38.7655 19.6592 31.9761C19.6592 25.1868 25.1835 19.6659 31.9771 19.6659C38.7707 19.6659 44.295 25.1868 44.295 31.9761C44.295 32.7421 44.2231 33.5 44.0874 34.226L48.2306 38.3666C49.013 36.388 49.4441 34.226 49.4441 31.9761C49.4441 22.3545 41.6126 14.52 31.9771 14.52C22.3415 14.52 14.5101 22.3545 14.5101 31.9761C14.5101 41.6058 22.3495 49.4323 31.9771 49.4323C34.1964 49.4323 36.3119 49.0174 38.2677 48.2595L34.1085 44.1028C33.414 44.2305 32.7036 44.2864 31.9771 44.2864Z" fill="white"/>
<path fill-rule="evenodd" clip-rule="evenodd" d="M45.1035 44.188L38.7844 37.8644C38.0354 37.1078 37.8442 36.0087 38.2187 35.0848C38.3462 34.7743 38.5375 34.4796 38.7844 34.2327C39.7885 33.2292 41.4141 33.2292 42.4181 34.2327L48.7371 40.5564C49.7411 41.5598 49.7411 43.1845 48.7371 44.188C48.5698 44.3553 48.3866 44.4907 48.1953 44.6022C47.2151 45.1597 45.9401 45.0243 45.1035 44.188ZM37.7335 38.637L44.1958 45.0959C45.1999 46.0994 45.1999 47.7241 44.1958 48.7276C44.0365 48.8869 43.8692 49.0143 43.6859 49.1258C42.6977 49.7072 41.4069 49.5718 40.5622 48.7276L34.2431 42.404C33.2391 41.4006 33.2391 39.7758 34.2431 38.7723C34.5539 38.4616 34.9285 38.2467 35.3189 38.1272C36.1317 37.8804 37.0481 38.0475 37.7335 38.637Z" fill="url(#paint0_linear_47_374)"/>
</g>
<defs>
<linearGradient id="paint0_linear_47_374" x1="33.4901" y1="33.4801" x2="51.3862" y2="35.9967" gradientUnits="userSpaceOnUse">
<stop stop-color="#FF6B00"/>
<stop offset="1" stop-color="#F9A605"/>
</linearGradient>
<clipPath id="clip0_47_374">
<rect width="36" height="36" fill="white" transform="translate(14 14)"/>
</clipPath>
</defs>
</svg>
