<svg width="64" height="64" viewBox="0 0 64 64" fill="none" xmlns="http://www.w3.org/2000/svg">
<rect width="64" height="64" fill="white"/>
<path d="M14.1293 35.9657C13.372 35.9657 12.6805 35.7896 12.0557 35.4368C11.4306 35.0842 10.9315 34.5845 10.5592 33.937C10.1862 33.2897 10 32.5382 10 31.6827C10 30.8854 10.1862 30.1628 10.5592 29.5155C10.9315 28.8683 11.4306 28.354 12.0557 27.9722C12.6805 27.5907 13.372 27.4 14.1293 27.4C14.8867 27.4 15.5811 27.5907 16.2121 27.9722C16.8434 28.3536 17.3483 28.8683 17.7268 29.5155C18.1053 30.1631 18.2948 30.8854 18.2948 31.6827C18.2948 32.5265 18.1053 33.2722 17.7268 33.9197C17.3483 34.5673 16.8434 35.0699 16.2121 35.4283C15.5811 35.7867 14.8867 35.9657 14.1293 35.9657ZM14.1293 33.9639C14.4539 33.9639 14.7392 33.8691 14.9858 33.6787C15.2321 33.4889 15.4277 33.2231 15.572 32.8823C15.7162 32.5415 15.7884 32.1415 15.7884 31.6827C15.7884 31.1908 15.7162 30.7772 15.572 30.4415C15.4277 30.1062 15.2321 29.8489 14.9858 29.6702C14.7392 29.4912 14.4539 29.4018 14.1293 29.4018C13.8288 29.4018 13.5552 29.4915 13.3089 29.6702C13.0623 29.8492 12.8671 30.1062 12.7228 30.4415C12.5785 30.7772 12.5064 31.1908 12.5064 31.6827C12.5064 32.1415 12.5753 32.5411 12.7137 32.8823C12.8518 33.2231 13.0441 33.4889 13.2907 33.6787C13.537 33.8687 13.8165 33.9639 14.1293 33.9639ZM23.0466 35.8575C22.788 35.7854 22.5417 35.6714 22.3075 35.5151C22.0729 35.3591 21.8594 35.1664 21.6674 34.938L21.3967 35.8218H19.377V23.8295H22.082V24.0319C22.0215 24.1057 21.9829 24.1856 21.9647 24.2711C21.9468 24.3572 21.9377 24.5044 21.9377 24.713V28.3377C22.0576 28.1934 22.1902 28.0645 22.3344 27.9501C22.4787 27.836 22.6379 27.7369 22.8124 27.6525C22.9865 27.5686 23.1698 27.5053 23.3625 27.463C23.5545 27.4211 23.753 27.4 23.9574 27.4C24.474 27.4117 24.9402 27.5043 25.3548 27.6775C25.7694 27.851 26.1239 28.108 26.4189 28.4488C26.7133 28.7897 26.9417 29.2147 27.1042 29.7231C27.2666 30.232 27.3475 30.8275 27.3475 31.5092C27.3475 32.2721 27.2575 32.934 27.0772 33.4944C26.8969 34.0552 26.6474 34.5176 26.3289 34.8815C26.0102 35.2454 25.6375 35.517 25.2109 35.6964C24.784 35.8757 24.3242 35.9651 23.8313 35.9651C23.5668 35.9651 23.3053 35.929 23.047 35.8569L23.0466 35.8575ZM23.9031 33.9639C24.0951 33.8798 24.2605 33.7449 24.3989 33.5597C24.537 33.3742 24.6452 33.1328 24.7235 32.8355C24.8015 32.5379 24.8408 32.1811 24.8408 31.7656C24.8408 31.3838 24.8077 31.0384 24.7417 30.7294C24.6754 30.4207 24.5793 30.1537 24.4532 29.9288C24.3268 29.7043 24.1676 29.5301 23.9752 29.4067C23.7829 29.2832 23.5603 29.2211 23.3079 29.2211C23.0073 29.2211 22.7578 29.3112 22.5596 29.4908C22.3614 29.6705 22.2139 29.9343 22.1177 30.2826C22.0212 30.631 21.9673 31.0631 21.9553 31.5797C21.9553 32.0066 21.9822 32.377 22.0365 32.6916C22.0907 33.0061 22.1746 33.2673 22.2889 33.4753C22.403 33.6832 22.5414 33.8375 22.7039 33.9386C22.866 34.0396 23.0554 34.0903 23.2718 34.0903C23.4999 34.0903 23.7104 34.0484 23.9028 33.9643L23.9031 33.9639ZM29.4663 38.5712C28.9913 38.337 28.5494 37.9971 28.141 37.5523L29.5115 35.749L29.6197 35.6226L29.7821 35.7308C29.8062 35.827 29.8273 35.9261 29.8452 36.0284C29.8634 36.1305 29.9322 36.2598 30.0525 36.4161C30.1847 36.5483 30.3319 36.6533 30.4943 36.7316C30.6568 36.8095 30.8517 36.8489 31.0805 36.8489C31.357 36.8489 31.5701 36.7969 31.7206 36.6939C31.8707 36.5905 31.973 36.4326 32.027 36.2201C32.0812 36.0076 32.1082 35.7523 32.1082 35.4537V29.5639H29.2769V27.5803H34.6867V35.247C34.6867 36.122 34.5122 36.831 34.1639 37.3739C33.815 37.9165 33.3672 38.3103 32.8204 38.5556C32.2733 38.8006 31.6933 38.9231 31.0802 38.9231C30.4671 38.9231 29.941 38.8058 29.4663 38.5716V38.5712ZM33.2262 25.8492C32.8051 25.8492 32.4477 25.7082 32.1534 25.4255C31.8587 25.1431 31.7115 24.8095 31.7115 24.4248C31.7115 24.004 31.8525 23.6615 32.1352 23.3967C32.4175 23.1326 32.7811 23 33.2262 23C33.623 23 33.9745 23.1413 34.2812 23.4237C34.5879 23.7064 34.741 24.0401 34.741 24.4244C34.741 24.8088 34.5876 25.1428 34.2812 25.4252C33.9748 25.7078 33.623 25.8489 33.2262 25.8489V25.8492ZM40.4393 32.3169L40.0244 32.7397V35.8211H37.4638V23.8295H40.1687V24.0264C40.1083 24.0982 40.0696 24.1759 40.0514 24.2594C40.0332 24.3432 40.0244 24.4865 40.0244 24.6892V30.0104L42.6393 27.4361C42.7475 27.4604 42.8674 27.4812 43 27.4991C43.1322 27.517 43.2642 27.5322 43.3967 27.5443C43.529 27.5563 43.6521 27.5654 43.7665 27.5712C43.8805 27.5774 43.9676 27.5803 44.028 27.5803H45.3446L42.0987 30.785L45.7052 35.8033L42.9643 35.8933L40.4397 32.3169H40.4393ZM46.6244 27.5803H53.4408L53.4048 29.5639H46.5884L46.6244 27.5803ZM49.8703 35.7643C49.4977 35.6301 49.1789 35.4027 48.9144 35.082C48.65 34.7613 48.4514 34.321 48.3192 33.7609C48.1866 33.201 48.1389 32.4891 48.1749 31.6258L48.4274 25.676L51.0241 25.3436L51.1866 25.3261L51.2048 25.5174C51.1567 25.5987 51.1083 25.6796 51.0605 25.7605C51.0124 25.8417 50.9822 25.9808 50.9702 26.1773L50.7538 28.8537H50.862L50.7177 31.4608C50.6816 32.1213 50.7086 32.6341 50.7989 32.9989C50.8893 33.3641 51.0212 33.6159 51.1957 33.755C51.3698 33.8941 51.5531 33.9636 51.7457 33.9636C52.1181 33.9636 52.458 33.8856 52.7647 33.7293C53.0714 33.5734 53.3388 33.3989 53.5672 33.2066L54 34.9916C53.5913 35.2922 53.1494 35.5297 52.6747 35.7039C52.1996 35.878 51.6739 35.9654 51.0969 35.9654C50.6521 35.9654 50.243 35.8985 49.8707 35.7643H49.8703ZM34.5178 41.9166C34.3254 41.9166 34.163 41.8503 34.031 41.7184C33.8988 41.5861 33.8325 41.4269 33.8325 41.2404C33.8325 41.0539 33.8985 40.8947 34.031 40.7625C34.1633 40.6302 34.3254 40.5639 34.5178 40.5639C34.7101 40.5639 34.8635 40.6302 34.9957 40.7625C35.128 40.8947 35.1939 41.0542 35.1939 41.2404C35.1939 41.4266 35.1276 41.5861 34.9957 41.7184C34.8635 41.8506 34.7039 41.9166 34.5178 41.9166ZM38.5256 41.7586C38.264 41.6534 38.0356 41.5072 37.8403 41.3197C37.6451 41.1325 37.4933 40.9103 37.3851 40.6526C37.2769 40.3953 37.2227 40.1117 37.2227 39.8014C37.2227 39.4911 37.2769 39.222 37.3851 38.9589C37.4933 38.6957 37.6451 38.466 37.8403 38.27C38.0356 38.0741 38.264 37.9188 38.5256 37.8048C38.7872 37.6907 39.0741 37.6335 39.3866 37.6335C39.7713 37.6335 40.1079 37.7057 40.3965 37.8499C40.685 37.9942 40.9134 38.1924 41.0817 38.4452L40.5138 39.0674L40.4595 39.1304L40.3874 39.0761C40.3874 39.0281 40.3812 38.9787 40.3695 38.9273C40.3575 38.8763 40.3185 38.8146 40.2522 38.7425C40.1378 38.6284 40.0118 38.5517 39.8733 38.5124C39.7349 38.4734 39.5757 38.4539 39.3954 38.4539C39.245 38.4539 39.1023 38.4842 38.9672 38.5446C38.832 38.605 38.7101 38.6914 38.6019 38.8035C38.4938 38.9156 38.4096 39.0554 38.3495 39.222C38.2894 39.389 38.2595 39.5817 38.2595 39.8004C38.2595 39.9963 38.291 40.1731 38.354 40.3313C38.4171 40.4895 38.5012 40.625 38.6065 40.7371C38.7114 40.8492 38.8349 40.9356 38.9763 40.9961C39.1173 41.0565 39.2661 41.0867 39.4227 41.0867C39.5491 41.0867 39.6719 41.0685 39.7924 41.0325C39.9127 40.9964 40.0313 40.9408 40.1485 40.8658C40.2658 40.7907 40.3753 40.69 40.4777 40.5636L41.0456 41.2128C40.8231 41.4594 40.5648 41.6381 40.2701 41.7492C39.9754 41.8603 39.6781 41.9159 39.3775 41.9159C39.077 41.9159 38.7868 41.8633 38.5256 41.758V41.7586ZM43.6245 41.9166C43.2518 41.9166 42.9136 41.8269 42.6101 41.6479C42.3066 41.4685 42.0675 41.2177 41.8933 40.8944C41.7189 40.5714 41.6318 40.1984 41.6318 39.775C41.6318 39.3517 41.7189 39.0056 41.8933 38.6824C42.0675 38.3591 42.3066 38.1037 42.6101 37.9156C42.9136 37.7277 43.2518 37.6335 43.6245 37.6335C43.9972 37.6335 44.3442 37.7277 44.648 37.9156C44.9514 38.1034 45.1919 38.3591 45.3693 38.6824C45.5464 39.0056 45.6354 39.3695 45.6354 39.775C45.6354 40.1805 45.5467 40.5711 45.3693 40.8944C45.1919 41.2177 44.9514 41.4685 44.648 41.6479C44.3445 41.8269 44.0033 41.9166 43.6245 41.9166ZM43.6245 41.1052C43.8227 41.1052 43.9942 41.0487 44.1385 40.9356C44.2828 40.8226 44.3984 40.6663 44.4855 40.4665C44.5726 40.2666 44.6161 40.0363 44.6161 39.7754C44.6161 39.5145 44.5726 39.2685 44.4855 39.0716C44.3984 38.8747 44.2828 38.7226 44.1385 38.6154C43.9942 38.5082 43.823 38.4546 43.6245 38.4546C43.4442 38.4546 43.2804 38.5082 43.1332 38.6154C42.9857 38.7226 42.8687 38.8747 42.7817 39.0716C42.6946 39.2685 42.651 39.5034 42.651 39.7754C42.651 40.0473 42.693 40.2666 42.7771 40.4665C42.8613 40.6663 42.9769 40.8229 43.1241 40.9356C43.2713 41.0487 43.4383 41.1052 43.6245 41.1052ZM46.1582 41.8444V37.7239H47.0147V38.0393C47.0868 37.9432 47.1618 37.8652 47.2401 37.8051C47.3181 37.745 47.401 37.7014 47.4881 37.6745C47.5751 37.6475 47.6609 37.6338 47.7451 37.6338C47.8471 37.6338 47.9433 37.6504 48.0336 37.6836C48.1239 37.7167 48.2064 37.7706 48.2815 37.846C48.3565 37.9214 48.4154 38.0189 48.4573 38.1391C48.5232 38.025 48.5983 37.9302 48.6828 37.8551C48.7669 37.7801 48.8644 37.7245 48.9758 37.6884C49.087 37.6524 49.2088 37.6342 49.341 37.6342C49.4973 37.6342 49.6296 37.6608 49.7378 37.7138C49.846 37.7667 49.9347 37.8434 50.0039 37.9438C50.0728 38.0442 50.1225 38.168 50.1527 38.3152C50.1826 38.4627 50.1978 38.6278 50.1978 38.8107V41.8447H49.3144V39.0339C49.3144 38.8578 49.3053 38.721 49.2874 38.6242C49.2696 38.5274 49.2423 38.4598 49.2062 38.4214C49.1701 38.3834 49.1221 38.3643 49.0619 38.3643C48.9836 38.3643 48.9086 38.401 48.8365 38.4744C48.7643 38.5478 48.7058 38.6479 48.6607 38.774C48.6155 38.9 48.5931 39.0485 48.5931 39.2188V41.8444H47.7636V39.0599C47.7636 38.7779 47.7425 38.5901 47.7005 38.4958C47.6583 38.4019 47.5803 38.3548 47.4663 38.3548C47.412 38.3548 47.3594 38.3727 47.3084 38.4078C47.2574 38.4429 47.2122 38.4945 47.1732 38.5618C47.1339 38.6294 47.1024 38.7145 47.0787 38.8175C47.0546 38.9205 47.0426 39.0362 47.0426 39.1655V41.8441H46.1591L46.1582 41.8444Z" fill="black"/>
</svg>
