<svg width="64" height="64" viewBox="0 0 64 64" fill="none" xmlns="http://www.w3.org/2000/svg">
<rect width="64" height="64" fill="white"/>
<g clip-path="url(#clip0_47_646)">
<path fill-rule="evenodd" clip-rule="evenodd" d="M33.0758 9.99976C33.9411 10.0231 36.7239 10.0699 38.9455 10.9819C41.1671 11.894 43.2952 14.3027 43.2952 14.3027C44.2306 14.4664 45.6337 14.747 47.3175 15.5187C49.0012 16.2904 50.5914 17.5064 51.2228 18.3717C51.8542 19.237 52.1816 19.8216 52.1816 21.061C52.1816 22.3004 51.9945 22.9084 51.6905 23.4463C51.4333 23.9374 50.8019 24.4051 50.8019 24.4051C51.2228 24.4285 51.9478 24.6857 52.1348 24.9664C52.3219 25.2704 52.6727 25.5978 51.901 28.6378C51.0357 32.0287 49.3052 34.5076 49.3052 34.5076C49.3052 34.5076 49.7963 34.9285 51.293 36.8461C52.7896 38.7637 53.1404 40.4708 52.9533 41.3127C52.7662 42.1779 51.7607 44.5866 48.4633 47.6735C43.4823 52.3505 38.8052 52.7247 37.0513 53.0287C33.7043 53.5544 30.2958 53.5544 26.9489 53.0287C25.195 52.7247 20.5179 52.3505 15.5368 47.6735C12.2395 44.5866 11.2339 42.1779 11.0469 41.3127C10.8598 40.4708 11.2106 38.7637 12.7072 36.8461C14.2039 34.9285 14.695 34.5076 14.695 34.5076C14.695 34.5076 13.8531 32.6601 12.9878 29.2692C12.2161 26.2292 13.0814 24.3817 13.2685 24.0777C13.4555 23.7971 14.0869 23.2826 14.5079 23.2592C14.5079 23.2592 13.7362 22.5109 13.4322 22.0198C13.1281 21.5755 12.8475 20.8272 12.9411 19.728C12.9878 19.1434 13.2918 18.3249 14.0168 17.4597C14.695 16.6412 15.1627 16.1033 16.823 15.2848C18.6705 14.3728 21.3364 13.6245 24.3297 13.414C24.3297 13.414 24.9377 12.2915 26.5045 11.4964C28.0012 10.7481 28.5858 10.5142 30.1059 10.2102C30.9711 10.0231 32.2106 9.97637 33.0758 9.99976Z" fill="#FFBF19"/>
<path d="M13.5023 23.8207L13.2684 24.078C13.0813 24.382 12.2161 26.2294 12.9878 29.2695C13.8531 32.6604 14.6949 34.5078 14.6949 34.5078C14.6949 34.5078 14.5078 34.6715 14.0401 35.2094C14.3909 35.2094 14.6482 35.1626 14.7651 35.0457L15.5134 34.2974C15.7239 34.0869 15.794 33.9933 15.7707 33.7829C15.7473 33.4321 15.4199 30.5557 15.3965 30.0412C15.3965 29.6437 15.4433 29.4332 15.7239 29.1292C16.098 28.6849 17.8286 27.2584 18.3197 26.8374C18.46 26.7439 18.2963 26.6036 18.2963 26.6036C16.9945 25.2401 15.3319 24.2749 13.5023 23.8207ZM51.784 24.99C50.7083 24.99 48.8842 25.2239 46.9199 26.51C46.9199 26.51 46.7562 26.6036 46.8731 26.7439C47.2473 27.1882 48.5335 28.755 48.8609 29.2461C49.0947 29.5969 49.0947 29.8074 49.0479 30.2049C48.9778 30.696 48.0658 33.2918 47.9956 33.6426C47.9488 33.853 47.9722 33.9933 48.1827 34.1804L48.9778 34.9054C49.1181 35.0223 49.4689 35.1158 49.9132 35.1626L49.3052 34.5078C49.3052 34.5078 51.0357 32.029 51.9009 28.6381C52.6493 25.7149 52.3453 25.294 52.1582 25.0134L51.784 24.99Z" fill="#FBD87E"/>
<path d="M32.725 10C30.5511 9.89427 28.3924 10.4137 26.5045 11.4967C24.9377 12.2918 24.3297 13.4143 24.3297 13.4143C21.3363 13.6248 18.6704 14.3731 16.823 15.2851C15.1626 16.1036 14.6949 16.6415 14.0167 17.4599C13.2918 18.3252 12.9878 19.1437 12.941 19.7283C12.8475 20.8274 13.1281 21.5758 13.4321 22.0201C13.7361 22.5112 14.5078 23.2595 14.5078 23.2595H14.4845C17.1738 23.6103 18.7873 24.3352 20.1671 25.1537C21.6404 26.0423 21.6404 26.1125 22.4588 27.5858C23.2773 29.059 23.5112 29.9711 23.5112 29.9711C26.4811 29.784 31.4154 29.8308 31.4154 29.8308H32.5847C32.5847 29.8308 38.1738 29.8074 41.1671 29.9945C41.1671 29.9945 41.3308 29.059 42.1493 27.5858C42.9677 26.1125 43.1314 25.8786 44.8386 25.3408C46.3586 24.8731 47.6682 24.4521 50.8018 24.4054C50.8018 24.4054 51.4332 23.9377 51.6905 23.4466C51.9945 22.9087 52.1816 22.3007 52.1816 21.0613C52.1816 19.8219 51.8542 19.2372 51.2228 18.372C50.5914 17.5067 49.0012 16.2907 47.3174 15.519C45.6337 14.7472 44.2306 14.4666 43.2951 14.3029C43.2951 14.3029 41.1671 11.8942 38.9455 10.9822C36.7239 10.0702 33.941 10.0234 33.0758 10H32.725Z" fill="black"/>
<path fill-rule="evenodd" clip-rule="evenodd" d="M31.0646 25.5278C27.1593 25.6214 22.5056 26.1125 22.5056 26.1125C23.0902 27.0011 23.9789 29.0356 23.9789 29.0356C26.9488 28.8719 31.0179 28.8252 31.0179 28.8252H32.9822C32.9822 28.8252 37.6593 28.8719 40.6292 29.0356C40.6292 29.0356 41.4009 26.931 42.2194 26.1125C42.2194 26.1125 36.8408 25.6214 32.9355 25.5278H31.0646Z" fill="#FDFDFD"/>
<path fill-rule="evenodd" clip-rule="evenodd" d="M32.8185 24.8965C36.8174 24.9432 39.343 25.1771 42.804 25.4811C42.804 25.4811 44.0435 24.7561 46.4054 24.3586C48.5802 23.9844 49.5624 24.2417 50.2172 24.2651C50.2172 24.2651 51.6203 23.3998 51.5735 21.2016C51.5268 20.0323 51.2461 19.4711 50.6381 18.6292C50.0535 17.8107 48.2762 16.6414 46.6626 15.8931C45.049 15.1448 43.9032 14.9577 42.9911 14.794C42.9911 14.794 40.7695 12.4321 38.6415 11.5435C36.5134 10.6548 33.8475 10.608 33.0056 10.608C31.0465 10.5013 29.096 10.9384 27.3697 11.8708C25.9432 12.549 25.2183 13.5546 25.0312 13.9054C24.8441 14.2795 24.4232 15.6125 24.7974 16.735C25.1248 17.6704 25.8497 18.4655 26.2005 18.7461C26.3408 18.8631 26.3174 19.0267 26.3174 19.0267L25.9199 19.4009C25.9199 19.4243 25.7795 19.4711 25.686 19.4009C25.1481 19.0267 24.1192 18.0446 23.7216 16.9221C23.3241 15.823 23.6515 14.7005 23.9555 14.0925C21.7105 14.2094 19.5824 14.7005 17.431 15.6593C16.0279 16.2907 15.3263 16.9688 14.6949 17.6938C14.0167 18.4655 13.666 19.2138 13.6426 19.8686C13.6192 20.8976 13.7829 21.4121 14.1337 21.9031L15.0457 23.1426C16.3553 23.0958 16.9399 23.1192 18.5067 23.6804C19.7929 24.1481 20.7049 24.6158 21.9677 25.5045C21.9677 25.5045 28.8196 24.8497 32.8185 24.8965Z" fill="#FDFDFD"/>
<path d="M14.2271 22.9554L14.5078 23.2595C14.0868 23.2828 13.4554 23.7973 13.2683 24.0779C13.0813 24.3819 12.216 26.2294 12.9877 29.2695C13.853 32.6603 14.6948 34.5078 14.6948 34.5078C14.6948 34.5078 14.2038 34.9287 12.7071 36.8463C11.2104 38.7639 10.8597 40.471 11.0467 41.3129C11.2338 42.1782 12.2394 44.5868 15.5367 47.6737C20.5178 52.3508 25.1948 52.7249 26.9487 53.0289C30.2964 53.5456 33.7035 53.5456 37.0512 53.0289C38.8051 52.7249 43.4822 52.3508 48.4632 47.6737C51.7605 44.5868 52.7661 42.1782 52.9532 41.3129C53.1403 40.471 52.7895 38.7639 51.2928 36.8463C49.7962 34.9287 49.3051 34.5078 49.3051 34.5078C49.3051 34.5078 51.0356 32.0289 51.9009 28.6381C52.6726 25.598 52.3218 25.2706 52.1347 24.9666C51.9476 24.686 51.2227 24.4287 50.8018 24.4053L50.2639 24.3819C47.902 24.3586 46.4989 24.7561 46.4989 24.7561C50.4744 24.4287 51.4799 24.9432 51.667 25.2238C51.8541 25.5044 51.9944 25.8786 51.2461 28.8252C50.4042 32.1225 48.5801 34.5546 48.5801 34.5546C48.5801 34.5546 49.1882 35.0223 50.6381 36.8697C52.0646 38.7405 52.4387 40.3073 52.2516 41.1492C52.0879 41.9677 51.1058 44.3296 47.902 47.3229C43.0846 51.8597 38.5479 52.2105 36.8641 52.5379C33.618 53.0501 30.3117 53.0501 27.0657 52.5379C25.3819 52.2105 20.8452 51.8597 16.0278 47.3229C12.824 44.3296 11.8418 41.9677 11.6781 41.1492C11.4911 40.3073 11.8418 38.7639 13.2683 36.8931C14.7182 35.0456 15.2093 34.6247 15.2093 34.6247C15.2093 34.6247 14.3908 32.7305 13.549 29.4332C12.8006 26.4866 13.549 24.6626 13.736 24.3819C13.9231 24.1013 14.3674 23.1191 17.1971 23.7272C17.1971 23.7272 15.2795 23.2595 14.2271 22.9554Z" fill="black"/>
<path fill-rule="evenodd" clip-rule="evenodd" d="M35.3441 37.2673L35.7651 37.8519C35.8586 37.9922 35.9054 37.9688 36.0457 37.8987C36.186 37.8285 36.6537 37.4544 37.2851 37.0568C37.9165 36.6593 38.6882 36.4722 39.6938 36.2617C40.6994 36.0746 41.3308 36.1448 43.3653 36.1214C43.6459 36.1214 43.6459 36.0279 43.6693 35.9343V35.3263C43.6693 35.1626 43.6225 35.1392 43.4121 35.0691C43.2016 35.0223 42.3597 34.8352 40.676 34.6247C38.9923 34.4143 38.0802 34.7183 37.5657 34.9521C36.9811 35.2328 35.8119 36.5189 35.5078 36.8697C35.2974 37.127 35.2974 37.1971 35.3441 37.2673ZM28.3519 37.735L28.7027 37.2439C28.7963 37.1036 28.7729 37.0802 28.7027 36.9633C28.6326 36.8463 28.1181 36.0512 27.2528 35.2795C26.3876 34.5078 26.0836 34.461 25.2183 34.274C24.3531 34.0869 23.6515 34.1103 22.8096 34.274C21.9678 34.4377 21.1025 34.7183 20.5179 34.7417C20.2372 34.7651 20.2372 34.9054 20.2372 35.0457L20.2139 35.7238C20.2139 35.8642 20.1905 35.9343 20.4711 35.8875C20.7517 35.8408 21.2896 35.6771 23.1136 35.9109C24.9377 36.1682 25.2651 36.402 26.294 36.7762C27.323 37.1737 27.8375 37.5713 28.0947 37.7116C28.3052 37.8285 28.2818 37.8051 28.3519 37.735Z" fill="#2E190B"/>
<path fill-rule="evenodd" clip-rule="evenodd" d="M32.0935 45.3118C32.5379 45.5457 33.1459 45.8731 33.9176 46.1537C34.6893 46.4343 35.4376 46.6682 36.4666 46.6682C37.5891 46.6682 38.2673 46.6448 38.8987 46.2239C39.5301 45.8029 39.9276 45.4054 40.2316 45.0312C40.5356 44.657 40.5122 44.2595 40.5122 43.9789C40.5122 43.6982 40.3719 42.9265 40.3252 42.6927C40.2784 42.4822 40.2316 42.4588 40.0445 42.4588C39.8575 42.4588 39.4599 42.5524 39.3196 42.6225C39.1793 42.6927 39.1793 42.7161 39.2494 42.9967C39.3196 43.2773 39.4599 43.9321 39.3897 44.3998C39.343 44.774 38.8987 45.3118 38.0802 45.7094C37.2617 46.1303 35.9521 45.99 34.7595 45.7094C33.5668 45.4288 33.1225 45.1715 32.8419 44.9611C32.5612 44.7506 32.4911 44.6337 32.4677 44.4232C32.4395 44.2374 32.4239 44.0499 32.4209 43.8619C32.4209 43.745 32.3975 43.6749 32.4911 43.6515C32.9822 43.5345 33.52 42.833 33.5434 42.7394C33.5668 42.6459 33.5668 42.6225 33.7071 42.5758C33.8474 42.5524 33.9877 42.5758 34.4087 42.3653C34.8296 42.1782 35.0167 41.804 35.0167 41.5234C35.0167 41.2662 34.7361 41.0089 34.4087 40.8452C34.0813 40.7049 33.52 40.7049 33.216 40.7985C32.912 40.9154 32.608 40.9856 32.3508 41.0089C32.1172 41.0253 31.8828 41.0253 31.6492 41.0089C31.392 41.0089 31.088 40.9154 30.784 40.7985C30.48 40.7049 29.9187 40.7049 29.5913 40.8452C29.2639 41.0089 28.9833 41.2662 28.9833 41.5234C28.9833 41.804 29.1704 42.1782 29.5913 42.3653C30.0122 42.5758 30.1526 42.5524 30.2929 42.5758C30.4332 42.6225 30.4332 42.6459 30.4566 42.7394C30.4566 42.833 30.9944 43.5345 31.5089 43.6515C31.5791 43.6749 31.5791 43.7684 31.5791 43.8619C31.5764 44.0499 31.5608 44.2374 31.5323 44.4232C31.4855 44.6337 31.4387 44.7506 31.1581 44.9611C30.8775 45.1715 30.4332 45.4288 29.2405 45.7094C28.0245 46.0134 26.7149 46.1303 25.9198 45.7094C25.1013 45.3118 24.657 44.774 24.6102 44.3998C24.5401 43.9321 24.6804 43.2773 24.7506 42.9967C24.7973 42.7161 24.8207 42.6927 24.6804 42.6225L23.9555 42.4588C23.745 42.4588 23.7216 42.4822 23.6748 42.6927C23.6281 42.9265 23.4644 43.6982 23.4877 43.9789C23.4877 44.2595 23.4644 44.657 23.7684 45.0312C24.049 45.4054 24.4465 45.8029 25.1013 46.2239C25.7327 46.6448 26.4109 46.6682 27.5334 46.6682C28.539 46.6682 29.3107 46.4343 30.0824 46.1537C30.7131 45.9251 31.3233 45.6435 31.9065 45.3118C32 45.2651 32 45.2651 32.0935 45.3118Z" fill="#2E190B"/>
<path fill-rule="evenodd" clip-rule="evenodd" d="M41.4711 41.9911C41.4945 42.108 41.6114 42.2249 41.7985 42.0846C41.9855 41.9443 44.1838 40.4009 44.8619 40.0033C45.5401 39.6292 46.6392 39.255 47.5746 39.0445C48.51 38.8574 49.3519 38.647 49.5156 38.6002C49.6793 38.5768 49.6559 38.4833 49.5858 38.3664C49.4636 38.202 49.3223 38.0529 49.1648 37.922C49.0479 37.8285 49.0011 37.8285 48.7673 37.8519C48.5334 37.8986 47.1303 38.1793 46.1247 38.4365C45.1192 38.6937 44.5813 38.9042 43.6693 39.4888C42.7573 40.0735 41.6581 41.1024 41.4711 41.2661C41.3541 41.3831 41.3308 41.4064 41.3541 41.5234L41.4711 41.9911ZM41.7049 43.137L41.7517 43.5111C41.7751 43.6047 41.7985 43.6748 41.9388 43.6514C42.0791 43.628 44.1838 43.1837 45.2361 43.0434C46.2884 42.9031 46.7795 42.9031 47.6916 42.9499C48.6036 42.9966 49.2818 43.0902 49.4688 43.1136C49.6091 43.137 49.6325 43.1136 49.7027 42.9733L49.8664 42.5757C49.9132 42.4588 49.9132 42.3419 49.7261 42.2951C49.539 42.2717 48.323 42.0846 47.2005 42.0378C46.078 41.9911 45.0724 42.0846 44.3007 42.2717C43.529 42.4588 42.0557 42.9031 41.892 42.9499C41.7283 42.9966 41.7049 43.02 41.7049 43.137ZM41.7517 44.6804L41.7283 45.1247C41.7283 45.2416 41.7283 45.265 41.8686 45.2884C42.0089 45.3352 43.2483 45.6392 43.8096 45.8496C44.3708 46.0601 44.8853 46.3407 45.5635 46.6915L46.99 47.51C47.1069 47.5802 47.1771 47.5568 47.2472 47.4866L47.6214 47.1125C47.7149 47.0189 47.7149 46.9488 47.598 46.8552L45.9143 45.8263C45.1893 45.4287 44.6515 45.2182 44.0201 45.0078C43.3887 44.7973 42.1025 44.5868 41.9388 44.5635C41.7751 44.5401 41.7517 44.6102 41.7517 44.6804ZM22.529 41.9911C22.5056 42.108 22.412 42.2249 22.2016 42.0846C22.0145 41.9443 19.8163 40.3775 19.1381 40.0033C18.4833 39.6292 17.3608 39.2316 16.4254 39.0445L14.4844 38.6002C14.3207 38.5534 14.3441 38.4599 14.4143 38.3664C14.5364 38.202 14.6777 38.0529 14.8352 37.922C14.9521 37.8285 15.0223 37.8051 15.2328 37.8519C15.4666 37.8753 16.8697 38.1793 17.8753 38.4365C18.9043 38.6937 19.4187 38.9042 20.3308 39.4888C21.2662 40.0735 22.3419 41.1024 22.529 41.2661C22.6693 41.3597 22.6927 41.3831 22.6459 41.5234L22.529 41.9911ZM22.2951 43.137L22.2483 43.5111C22.2483 43.6047 22.2016 43.6748 22.0613 43.6514C21.921 43.628 19.8163 43.1837 18.7639 43.0434C17.7116 42.9031 17.2205 42.9031 16.3085 42.9499C15.4198 42.9966 14.7183 43.0902 14.5312 43.1136C14.3909 43.137 14.3675 43.1136 14.2973 42.9733L14.1336 42.5757C14.0869 42.4354 14.0869 42.3419 14.274 42.2951C14.461 42.2717 15.6771 42.0846 16.7996 42.0378C17.9221 41.9911 18.9276 42.0846 19.6994 42.2717C20.4945 42.4588 21.9443 42.9031 22.108 42.9499C22.2951 42.9966 22.3185 43.02 22.2951 43.137ZM22.2483 44.6804L22.2717 45.1247C22.2951 45.2416 22.2717 45.265 22.1314 45.2884C22.0145 45.3352 20.7751 45.6392 20.1904 45.8496C19.6292 46.0601 19.1147 46.3407 18.4365 46.6915L17.01 47.51C16.8931 47.5802 16.823 47.5568 16.7528 47.4866L16.3786 47.1125C16.2851 47.0423 16.2851 46.9488 16.402 46.8552L18.0858 45.8263C18.8107 45.4287 19.3486 45.2182 19.98 45.0078C20.6114 44.7973 21.921 44.5868 22.0613 44.5635C22.225 44.5401 22.2483 44.6102 22.2483 44.6804Z" fill="#2E190B"/>
</g>
<defs>
<clipPath id="clip0_47_646">
<rect width="42" height="43.4265" fill="white" transform="translate(11 10)"/>
</clipPath>
</defs>
</svg>
