<svg width="64" height="64" viewBox="0 0 64 64" fill="none" xmlns="http://www.w3.org/2000/svg">
<rect width="64" height="64" fill="white"/>
<path d="M31.8493 22.357C31.1759 23.0305 30.104 23.0682 29.4808 22.5134L29.422 22.4578L23.9491 16.985C23.6206 16.6549 23.4338 16.2097 23.4286 15.744C23.4233 15.2783 23.5999 14.8289 23.9209 14.4915C24.2419 14.1541 24.6819 13.9552 25.1472 13.9373C25.6126 13.9193 26.0666 14.0836 26.4127 14.3952L26.4773 14.4568L31.889 19.8686C32.5625 20.542 32.5447 21.662 31.8493 22.357ZM37.8569 36.5302L37.7588 36.6424C34.5788 40.2977 29.11 40.4772 25.7968 37.1612L25.695 37.0576L14.7334 26.0958C14.4138 25.7807 14.2306 25.3528 14.2232 24.904C14.2159 24.4552 14.3849 24.0215 14.694 23.6961C15.0031 23.3706 15.4276 23.1795 15.8761 23.1638C16.3247 23.148 16.7615 23.3089 17.0927 23.6119L17.1565 23.6728L28.1183 34.6346C30.0997 36.616 33.4778 36.4805 35.3576 34.1202C36.8471 32.2768 36.5942 29.5099 34.9335 27.762L34.8433 27.6692L34.3629 27.1889C33.7025 26.5285 33.7073 25.4427 34.3735 24.7763C35.019 24.1308 36.058 24.1061 36.7226 24.7057L36.7857 24.7658L37.206 25.1861C40.2933 28.2728 40.66 33.258 37.8569 36.5302ZM41.788 41.4913C40.0462 43.2331 37.9406 44.4908 35.5914 45.1446C34.6575 45.3744 33.7206 44.812 33.4946 43.844L33.475 43.749L33.4745 43.6283C33.3549 42.8136 33.8523 42.0576 34.6442 41.7914L34.7334 41.7638C36.6007 41.2286 38.285 40.1502 39.6658 38.6481C43.5288 34.3058 43.1269 27.6997 39.0648 23.631L38.9406 23.5086L30.3322 14.9005C30.0188 14.5873 29.8402 14.164 29.8344 13.721C29.8286 13.278 29.9962 12.8502 30.3013 12.5289C30.6064 12.2076 31.025 12.0183 31.4678 12.0013C31.9105 11.9842 32.3424 12.1408 32.6714 12.4377L32.7347 12.498L41.3431 21.1064C46.9743 26.7376 47.3129 35.8452 41.788 41.4913ZM29.5457 43.7205C29.4313 44.7899 28.4235 45.4395 27.3521 45.0785C25.1718 44.4966 23.155 43.3073 21.4619 41.6713L21.2752 41.4878L12.4928 32.7055C12.1833 32.3971 12.0064 31.98 12.0002 31.5432C11.9939 31.1063 12.1587 30.6843 12.4593 30.3672C12.7599 30.0501 13.1726 29.8632 13.6092 29.8462C14.0458 29.8292 14.4717 29.9836 14.796 30.2763L14.8606 30.3377L23.6429 39.12C24.9559 40.433 26.5049 41.3902 28.29 41.8729C29.1231 42.114 29.661 42.889 29.5457 43.7205ZM51.8373 34.1856C51.7144 35.0001 50.9766 35.539 50.1684 35.4732L50.0816 35.4639L49.6012 35.3475C48.8202 35.1733 48.4044 34.5147 48.471 33.7318C49.1032 28.8688 47.5195 24.0239 44.1105 20.5144L43.9469 20.3482L39.8003 16.2017C39.4871 15.8845 39.3096 15.4579 39.3052 15.0122C39.3009 14.5664 39.4701 14.1365 39.7771 13.8132C40.0841 13.49 40.5048 13.2989 40.9501 13.2803C41.3955 13.2617 41.8307 13.417 42.1636 13.7135L42.2277 13.7743L46.3742 17.9209C50.612 22.1592 52.6088 28.161 51.8373 34.1856ZM45.7973 46.3294C38.2976 53.9478 25.6256 53.8012 17.921 46.3457L17.6889 46.1175L13.8357 42.2643C13.514 41.9426 13.3307 41.5079 13.325 41.0529C13.3193 40.5979 13.4917 40.1588 13.8053 39.8291L13.8342 39.7995C14.1346 39.4992 14.5387 39.3255 14.9633 39.3142C15.3879 39.3029 15.8007 39.4549 16.1165 39.7389L16.1804 39.7995L20.1535 43.7726C26.5135 50.1326 37.1442 50.302 43.3969 43.9292C44.4791 42.7268 45.5017 41.3445 46.2239 39.9023C46.6452 39.121 47.6065 38.7598 48.3871 39.0592C49.2875 39.4787 49.7068 40.4993 49.2855 41.4005C48.4431 43.2034 47.2402 44.8865 45.7973 46.3294Z" fill="#FF834F"/>
<path d="M32.1657 32.1537C32.861 31.4583 32.8884 30.3482 32.2265 29.6866L20.4734 17.9332C20.1366 17.6052 19.6842 17.4231 19.2142 17.4262C18.7442 17.4294 18.2943 17.6175 17.9619 17.9499C17.6295 18.2822 17.4414 18.7321 17.4383 19.2022C17.4352 19.6722 17.6173 20.1246 17.9452 20.4613L29.6984 32.2145C30.3603 32.8761 31.4704 32.8487 32.1657 32.1537Z" fill="#FF4949"/>
<path opacity="0.35" d="M39.6652 38.6485C38.2843 40.1505 36.6001 41.2292 34.7328 41.7642C33.8894 42.002 33.35 42.7838 33.4739 43.6284L33.4744 43.7491C33.6594 44.775 34.627 45.3821 35.5908 45.1448C37.94 44.4909 40.0455 43.2332 41.7874 41.4914C47.3125 35.8454 46.9736 26.7377 41.3424 21.1065L32.7343 12.4982C32.4149 12.1834 31.9841 12.0077 31.5357 12.0093C31.0872 12.011 30.6577 12.1898 30.3406 12.5069C30.0235 12.824 29.8447 13.2536 29.843 13.702C29.8414 14.1504 30.0171 14.5813 30.3318 14.9006L38.9402 23.509C43.1177 27.5663 43.5672 34.2621 39.6652 38.6485Z" fill="#FF4949"/>
<path opacity="0.35" d="M29.5453 43.7205C29.6607 42.889 29.1228 42.1142 28.2897 41.8729C26.5046 41.3902 24.9556 40.4327 23.6426 39.12L14.86 30.3374C14.7046 30.1819 14.52 30.0586 14.3169 29.9744C14.1137 29.8903 13.896 29.8469 13.6761 29.8469C13.4562 29.8469 13.2385 29.8902 13.0354 29.9744C12.8322 30.0585 12.6476 30.1818 12.4922 30.3373C12.3367 30.4928 12.2133 30.6774 12.1292 30.8805C12.0451 31.0837 12.0018 31.3014 12.0018 31.5213C12.0018 31.7412 12.0451 31.9589 12.1293 32.162C12.2134 32.3652 12.3368 32.5497 12.4923 32.7052L21.2746 41.4875C23.0053 43.2183 25.0906 44.4749 27.3515 45.0785C28.4232 45.4395 29.4307 44.7899 29.5453 43.7205Z" fill="#FF4949"/>
<path opacity="0.7" d="M31.849 22.3572C32.5443 21.6619 32.5619 20.5422 31.8884 19.8687L26.4769 14.457C26.1401 14.129 25.6878 13.9469 25.2177 13.9501C24.7477 13.9532 24.2978 14.1413 23.9654 14.4737C23.633 14.806 23.4449 15.2559 23.4418 15.726C23.4387 16.196 23.6208 16.6484 23.9487 16.9851L29.4216 22.458C30.034 23.0704 31.1539 23.0525 31.849 22.3572Z" fill="#FF4949"/>
<path opacity="0.7" d="M37.7587 36.6425C40.6679 33.373 40.3285 28.3084 37.2061 25.1863L36.7858 24.766C36.1254 24.1056 35.0397 24.1103 34.3733 24.7765C33.7069 25.4429 33.7021 26.5284 34.3627 27.189L34.8431 27.6694C36.5844 29.4108 36.8735 32.2441 35.3575 34.1202C33.4774 36.4806 30.0995 36.6161 28.1181 34.6345L17.1563 23.6729C16.9972 23.5138 16.8084 23.3876 16.6005 23.3015C16.3926 23.2153 16.1698 23.171 15.9448 23.171C15.7198 23.171 15.497 23.2153 15.2891 23.3015C15.0812 23.3876 14.8923 23.5138 14.7332 23.6729C14.5741 23.832 14.4479 24.0209 14.3618 24.2288C14.2756 24.4367 14.2313 24.6595 14.2313 24.8845C14.2313 25.1095 14.2756 25.3323 14.3618 25.5402C14.4479 25.7481 14.5741 25.9369 14.7332 26.096L25.695 37.0578C28.997 40.4806 34.546 40.3356 37.7587 36.6425Z" fill="#FF4949"/>
</svg>
