<svg width="64" height="64" viewBox="0 0 64 64" fill="none" xmlns="http://www.w3.org/2000/svg">
<rect width="64" height="64" fill="white"/>
<g clip-path="url(#clip0_17_585)">
<path d="M51.0475 29.93V30.6725C50.9258 34.5056 49.9536 38.2637 48.2012 41.675C46.1281 44.9009 43.3559 47.6192 40.09 49.6287L39.46 50L38.335 49.3587L31.9675 45.68C31.5778 45.4597 31.2021 45.2155 30.8425 44.9487C30.5255 44.7349 30.2247 44.498 29.9425 44.24C29.2852 43.6825 28.6893 43.0565 28.165 42.3725C27.4316 41.4186 26.8369 40.3656 26.3987 39.245C25.6103 37.2582 25.2611 35.1244 25.375 32.99C25.9998 32.6499 26.6999 32.472 27.4112 32.4725H27.9287C27.7515 34.3316 27.9898 36.2068 28.6262 37.9625C29.4631 40.2999 31.1013 42.265 33.25 43.5087L39.4375 47.075L39.91 46.7487C42.3631 45.0726 44.4524 42.9183 46.0525 40.415C47.4908 37.619 48.33 34.5537 48.5162 31.415L45.895 29.8962C46.1083 29.0246 46.2476 28.1364 46.3112 27.2412L51.0475 29.93Z" fill="#3880FF"/>
<path d="M43.8025 17.375V26.0375C43.8027 26.4846 43.7802 26.9314 43.735 27.3762C43.735 27.7587 43.645 28.1412 43.5775 28.5012C43.4106 29.3447 43.1619 30.1698 42.835 30.965C42.382 32.0844 41.7722 33.1336 41.0238 34.0812C39.7019 35.7579 38.0323 37.1282 36.13 38.0975C35.3738 37.6359 34.7831 36.9467 34.4425 36.1287C36.1314 35.3439 37.6229 34.1907 38.8075 32.7537C40.4054 30.8668 41.2859 28.4764 41.2938 26.0037V18.905L40.7763 18.6575C38.0967 17.371 35.1845 16.64 32.215 16.5087C29.0496 16.6552 25.9513 17.4719 23.125 18.905V21.9312C22.2637 22.18 21.4246 22.4998 20.6163 22.8875V17.375L21.2463 17.015C24.6316 15.2038 28.3795 14.1736 32.215 14C36.0452 14.1797 39.7861 15.2178 43.1613 17.0375L43.8025 17.375Z" fill="#3880FF"/>
<path d="M22.1462 27.77L15.9587 31.3363C15.9587 31.4938 15.9587 31.685 15.9587 31.8875C16.174 34.8582 16.9973 37.7531 18.3775 40.3925C20.0821 43.0577 22.3282 45.3345 24.97 47.075L27.625 45.5563C28.2744 46.1759 28.9743 46.7404 29.7175 47.2437L24.97 50L24.3287 49.6287C21.0722 47.6103 18.3084 44.8888 16.24 41.6638C14.4842 38.2503 13.5155 34.4869 13.405 30.65V29.9188L14.53 29.2663L20.875 25.5988C21.262 25.3762 21.66 25.1735 22.0675 24.9913C22.4163 24.8338 22.7763 24.6875 23.1363 24.5638C23.949 24.2766 24.79 24.0767 25.645 23.9675C26.8398 23.81 28.0502 23.81 29.245 23.9675C31.3551 24.2882 33.3724 25.0553 35.1625 26.2175C35.1424 27.08 34.8685 27.9174 34.375 28.625C32.864 27.5534 31.1356 26.8274 29.3125 26.4988C26.8486 26.0573 24.308 26.508 22.1462 27.77Z" fill="#3880FF"/>
</g>
<defs>
<clipPath id="clip0_17_585">
<rect width="38.25" height="36" fill="white" transform="translate(13 14)"/>
</clipPath>
</defs>
</svg>
