<svg width="64" height="64" viewBox="0 0 64 64" fill="none" xmlns="http://www.w3.org/2000/svg">
<rect width="64" height="64" fill="url(#paint0_linear_26_696)"/>
<g clip-path="url(#clip0_26_696)">
<path d="M14.4 28.9124C14.4 32.1029 15.5158 34.4892 17.7471 36.0713C19.126 37.0468 20.6929 37.5346 22.448 37.5346C25.0554 37.5346 27.0236 36.5722 28.3523 34.6474C28.6531 34.1992 28.8913 33.7508 29.0669 33.3026L28.0891 32.9467C27.1614 35.0297 25.632 36.1766 23.501 36.3876C23.3004 36.414 23.0999 36.4272 22.8992 36.4272C21.1192 36.4272 19.7277 35.4911 18.7248 33.6191C17.9727 32.1952 17.5966 30.5077 17.5966 28.5565C17.5966 25.1024 18.4616 22.7952 20.1916 21.6351C20.9186 21.1604 21.7209 20.9232 22.5984 20.9232C23.9522 20.9232 24.7671 21.4769 25.0429 22.5843C25.093 22.7952 25.1558 23.1248 25.231 23.5731C25.3814 24.6277 25.6572 25.2869 26.0583 25.5506C26.309 25.6825 26.5848 25.7616 26.8857 25.788C27.7381 25.8406 28.2771 25.4716 28.5027 24.6805C28.5529 24.4959 28.5779 24.3246 28.5779 24.1663C28.5779 22.8217 27.7631 21.7141 26.1335 20.8441C24.9802 20.2375 23.7266 19.9344 22.3728 19.9344C19.0131 19.9344 16.669 21.3714 15.3402 24.2454C14.7134 25.6165 14.4 27.1723 14.4 28.9124Z" fill="white"/>
<path d="M41.2919 49.2671C39.0081 49.2671 37.3478 48.7121 36.2982 47.6021C35.2549 46.4921 34.7333 45.2982 34.7333 44.014C34.7333 43.5429 34.8224 43.1492 35.0068 42.8331C35.185 42.5168 35.4458 42.2522 35.7512 42.078C36.0692 41.8908 36.4573 41.8004 36.9153 41.8004C37.3796 41.8004 37.7677 41.8908 38.0794 42.078C38.3975 42.2651 38.6456 42.5168 38.8237 42.8331C39.0081 43.1557 39.0972 43.5493 39.0972 44.014C39.0972 44.5819 38.9636 45.0401 38.6964 45.4015C38.4292 45.7564 38.1113 45.9952 37.7486 46.1049C38.0667 46.5502 38.5629 46.8599 39.2435 47.0471C39.9242 47.2471 40.6048 47.344 41.2856 47.344C42.2334 47.344 43.0858 47.0859 43.8555 46.5695C44.6189 46.0532 45.185 45.2853 45.5476 44.2786C45.9102 43.2654 46.0947 42.1231 46.0947 40.8389C46.0947 39.445 45.8911 38.2576 45.4904 37.2702C45.1023 36.2699 44.5234 35.5342 43.7601 35.0502C43.0158 34.5791 42.157 34.3275 41.2856 34.3275C40.7003 34.3275 39.975 34.5727 39.0972 35.0695L37.4942 35.8827V35.0695L44.708 25.312H34.7333V35.4374C34.7333 36.2764 34.9179 36.9668 35.2804 37.5089C35.643 38.051 36.2028 38.3221 36.9598 38.3221C37.5451 38.3221 38.0985 38.122 38.6329 37.7283C39.1736 37.3282 39.638 36.8443 40.0196 36.2893C40.0705 36.1795 40.1278 36.0957 40.2041 36.0505C40.2677 35.9924 40.3568 35.9601 40.4395 35.9601C40.573 35.9601 40.7321 36.0246 40.9102 36.1666C41.0819 36.3602 41.1647 36.5925 41.1647 36.8507C41.1456 37.025 41.1137 37.1991 41.0756 37.3669C40.6621 38.3027 40.0896 39.0191 39.3644 39.5095C38.652 39.9935 37.8186 40.2516 36.9598 40.2516C34.7969 40.2516 33.3021 39.8193 32.4751 38.961C31.6481 38.0962 31.2346 36.9281 31.2346 35.4503V25.3184H26.1328V23.434H31.2346V19.1425L30.0705 17.9616V17H33.4611L34.7333 17.6647V23.4276L47.9204 23.3953L49.2308 24.7247L41.1456 32.927C41.6354 32.7269 42.1506 32.6044 42.6786 32.5591C43.5502 32.5591 44.5361 32.8431 45.6303 33.411C46.7372 33.9661 47.5833 34.7276 48.1812 35.702C48.7792 36.6636 49.1609 37.5863 49.3262 38.477C49.5107 39.3676 49.5998 40.1549 49.5998 40.8453C49.5998 42.4199 49.269 43.8914 48.6138 45.2466C47.9585 46.6018 46.9598 47.6085 45.6239 48.2797C44.2881 48.9315 42.8441 49.2671 41.2919 49.2671Z" fill="white"/>
</g>
<defs>
<linearGradient id="paint0_linear_26_696" x1="-2.75555" y1="-23.3949" x2="66.6655" y2="-22.7916" gradientUnits="userSpaceOnUse">
<stop offset="0.122751" stop-color="#0F62FF"/>
<stop offset="1" stop-color="#6B5BD2"/>
</linearGradient>
<clipPath id="clip0_26_696">
<rect width="36" height="33" fill="white" transform="translate(14 17)"/>
</clipPath>
</defs>
</svg>
