<svg width="64" height="64" viewBox="0 0 64 64" fill="none" xmlns="http://www.w3.org/2000/svg">
<rect width="64" height="64" fill="#FAFBFB"/>
<path fill-rule="evenodd" clip-rule="evenodd" d="M19.5827 16H44.9262C45.531 16 46.0896 16.3235 46.3912 16.8483L53.7748 29.6976C54.1577 30.3639 54.0439 31.2049 53.4977 31.7453L33.1741 51.8528C32.5158 52.5042 31.4568 52.5042 30.7984 51.8528L10.5022 31.7725C9.94338 31.2196 9.83874 30.354 10.2497 29.6835L18.1422 16.8071C18.4496 16.3056 18.995 16 19.5827 16ZM41.6539 21.7367V25.3421H34.4346V27.8417C39.505 28.1089 43.3091 29.206 43.3374 30.521L43.3372 33.2624C43.3089 34.5774 39.505 35.6745 34.4346 35.9416V42.0761H29.6408V35.9416C24.5704 35.6745 20.7663 34.5774 20.7381 33.2624L20.7382 30.521C20.7664 29.206 24.5704 28.1089 29.6408 27.8417V25.3421H22.4214V21.7367H41.6539ZM32.0377 34.0583C37.4487 34.0583 41.9714 33.1306 43.0782 31.8917C42.1396 30.8411 38.7446 30.0143 34.4346 29.7872V32.4044C33.6621 32.4451 32.8601 32.4665 32.0377 32.4665C31.2152 32.4665 30.4133 32.4451 29.6408 32.4044V29.7872C25.3307 30.0143 21.9357 30.8411 20.9972 31.8917C22.104 33.1306 26.6267 34.0583 32.0377 34.0583Z" fill="#009393"/>
</svg>
