<svg width="64" height="64" viewBox="0 0 64 64" fill="none" xmlns="http://www.w3.org/2000/svg">
<rect width="64" height="64" fill="#DB233E"/>
<path d="M37.202 47.507L33.7445 44.0201C32.7627 43.0298 31.1749 43.0298 30.2035 44.0201L26.746 47.507C25.7328 48.5289 24.0824 48.5289 23.0691 47.507L21.3979 45.8215L26.6938 40.4803C29.6081 37.5411 34.3295 37.5411 37.2438 40.4803L42.5397 45.8215L40.8683 47.507C39.8656 48.5289 38.2257 48.5289 37.202 47.507Z" fill="white"/>
<path d="M18.4312 42.819L16.7599 41.1335C15.7467 40.1116 15.7467 38.4471 16.7599 37.4252L20.2174 33.9382C21.1993 32.9479 21.1993 31.3466 20.2174 30.3669L16.7599 26.8799C15.7467 25.858 15.7467 24.1935 16.7599 23.1716L18.4312 21.4861L23.7271 26.8271C26.6414 29.7664 26.6414 34.5281 23.7271 37.4673L18.4312 42.819Z" fill="white"/>
<path d="M32.0206 25.9949C30.1091 25.9949 28.1976 25.2679 26.7456 23.7931L21.4497 18.452L23.121 16.7664C24.1342 15.7445 25.7846 15.7445 26.7979 16.7664L30.2553 20.2533C31.2268 21.2331 32.8249 21.2331 33.7964 20.2533L37.2538 16.7664C38.2671 15.7445 39.9175 15.7445 40.9307 16.7664L42.602 18.452L37.3061 23.7931C35.8437 25.2469 33.9322 25.9949 32.0206 25.9949Z" fill="white"/>
<path d="M45.5688 42.7769L40.2729 37.4357C37.3586 34.4966 37.3586 29.7348 40.2729 26.7956L45.5688 21.4544L47.2401 23.14C48.2533 24.1619 48.2533 25.8264 47.2401 26.8482L43.7826 30.3353C42.8007 31.3256 42.8007 32.9268 43.7826 33.9066L47.2401 37.3936C48.2533 38.4155 48.2533 40.08 47.2401 41.1019L45.5688 42.7769Z" fill="white"/>
</svg>
