<svg width="64" height="64" viewBox="0 0 64 64" fill="none" xmlns="http://www.w3.org/2000/svg">
<rect width="64" height="64" fill="#F8FBFC"/>
<g clip-path="url(#clip0_4_2)">
<mask id="mask0_4_2" style="mask-type:luminance" maskUnits="userSpaceOnUse" x="10" y="17" width="16" height="30">
<path d="M25.7931 17H10.7931V47H25.7931V17Z" fill="white"/>
</mask>
<g mask="url(#mask0_4_2)">
<path d="M10.7082 43.4137C10.7082 42.4708 11.045 41.6794 11.7185 41.0396C12.3583 40.3661 13.1497 40.0293 14.0925 40.0293H28.2924C28.9322 39.9957 29.4542 39.8442 29.8583 39.5747C30.2961 39.3054 30.616 39.0023 30.818 38.6655C31.0201 38.3288 31.1211 37.9752 31.1211 37.6048C31.1211 37.2344 31.0201 36.8808 30.818 36.5441C30.616 36.2073 30.2961 35.9042 29.8583 35.6348C29.4542 35.3654 28.9322 35.2139 28.2924 35.1802H14.1936C13.2507 35.1802 12.4593 34.8435 11.8195 34.17C11.146 33.5302 10.8092 32.7388 10.8092 31.7959C10.8092 30.8531 11.1292 30.0617 11.769 29.4219C12.4425 28.7484 13.2507 28.4116 14.1936 28.4116H27.9894C28.023 28.4116 28.0567 28.4116 28.0904 28.4116C28.7302 28.378 29.2522 28.2433 29.6563 28.0075C30.094 27.7381 30.4139 27.4351 30.616 27.0983C30.818 26.7616 30.9191 26.408 30.9191 26.0376C30.9191 25.7008 30.818 25.3641 30.616 25.0273C30.4139 24.6906 30.094 24.4044 29.6563 24.1687C29.2522 23.8992 28.7302 23.7477 28.0904 23.7141H13.9915C13.0486 23.7141 12.2573 23.3773 11.6175 22.7038C10.944 22.0977 10.6072 21.3232 10.6072 20.3803C10.6072 19.471 10.9271 18.6965 11.5669 18.0567C12.2404 17.4169 13.0486 17.097 13.9915 17.097H27.7873C30.1445 17.1307 32.0808 17.6526 33.5962 18.6628C35.1452 19.6394 36.2396 20.7843 36.8794 22.0977C37.5529 23.4109 37.8897 24.7243 37.8897 26.0376C37.8897 27.3509 37.5529 28.6473 36.8794 29.927C36.5764 30.5332 36.1891 31.0888 35.7177 31.5939C36.2902 32.2 36.7616 32.8398 37.132 33.5133C37.7718 34.8603 38.0917 36.2242 38.0917 37.6048C38.0917 38.9181 37.755 40.2482 37.0815 41.5952C36.408 42.9085 35.3135 44.0872 33.7982 45.1311C32.2829 46.1413 30.3466 46.6801 27.9894 46.7474H27.6863C27.4842 46.7811 27.2822 46.798 27.0802 46.798H14.0925C13.1497 46.798 12.3415 46.4781 11.668 45.8382C11.0281 45.1647 10.7082 44.3565 10.7082 43.4137Z" fill="#575757" fill-opacity="0.16"/>
</g>
<mask id="mask1_4_2" style="mask-type:luminance" maskUnits="userSpaceOnUse" x="10" y="17" width="27" height="30">
<path d="M36.1379 17H10.7931V47H36.1379V17Z" fill="white"/>
</mask>
<g mask="url(#mask1_4_2)">
<path d="M17.9496 43.4137C17.9496 42.4708 18.2864 41.6794 18.9599 41.0396C19.5997 40.3661 20.391 40.0293 21.3339 40.0293H37.6028C38.2426 39.9957 38.7645 39.8442 39.1687 39.5747C39.6064 39.3054 39.9263 39.0023 40.1283 38.6655C40.3304 38.3288 40.4314 37.9752 40.4314 37.6048C40.4314 37.2344 40.3304 36.8808 40.1283 36.5441C39.9263 36.2073 39.6064 35.9042 39.1687 35.6348C38.7645 35.3654 38.2426 35.2139 37.6028 35.1802H21.4349C20.4921 35.1802 19.7007 34.8435 19.0609 34.17C18.3874 33.5302 18.0506 32.7388 18.0506 31.7959C18.0506 30.8531 18.3705 30.0617 19.0104 29.4219C19.6839 28.7484 20.4921 28.4116 21.4349 28.4116H37.2997C37.3334 28.4116 37.3671 28.4116 37.4007 28.4116C38.0406 28.378 38.5625 28.2433 38.9666 28.0075C39.4044 27.7381 39.7243 27.4351 39.9263 27.0983C40.1283 26.7616 40.2294 26.408 40.2294 26.0376C40.2294 25.7008 40.1283 25.3641 39.9263 25.0273C39.7243 24.6906 39.4044 24.4044 38.9666 24.1687C38.5625 23.8992 38.0406 23.7477 37.4007 23.7141H21.2329C20.29 23.7141 19.4986 23.3773 18.8589 22.7038C18.1854 22.0977 17.8486 21.3232 17.8486 20.3803C17.8486 19.471 18.1685 18.6965 18.8083 18.0567C19.4818 17.4169 20.29 17.097 21.2329 17.097H37.0977C39.4549 17.1307 41.3911 17.6526 42.9065 18.6628C44.4555 19.6394 45.55 20.7843 46.1898 22.0977C46.8633 23.4109 47.2 24.7243 47.2 26.0376C47.2 27.3509 46.8633 28.6473 46.1898 29.927C45.8867 30.5332 45.4995 31.0888 45.028 31.5939C45.6005 32.2 46.0719 32.8398 46.4424 33.5133C47.0822 34.8603 47.402 36.2242 47.402 37.6048C47.402 38.9181 47.0653 40.2482 46.3918 41.5952C45.7183 42.9085 44.6239 44.0872 43.1086 45.1311C41.5932 46.1413 39.6569 46.6801 37.2997 46.7474H36.9967C36.7946 46.7811 36.5925 46.798 36.3905 46.798H21.3339C20.391 46.798 19.5828 46.4781 18.9093 45.8382C18.2695 45.1647 17.9496 44.3565 17.9496 43.4137Z" fill="#A4A4A4"/>
</g>
<path d="M25.7082 43.4137C25.7082 42.4708 26.045 41.6794 26.7185 41.0396C27.3583 40.3661 28.1497 40.0293 29.0925 40.0293H43.2924C43.9322 39.9957 44.4542 39.8442 44.8583 39.5747C45.296 39.3054 45.616 39.0023 45.818 38.6655C46.0201 38.3288 46.1211 37.9752 46.1211 37.6048C46.1211 37.2344 46.0201 36.8808 45.818 36.5441C45.616 36.2073 45.296 35.9042 44.8583 35.6348C44.4542 35.3654 43.9322 35.2139 43.2924 35.1802H29.1936C28.2507 35.1802 27.4593 34.8435 26.8195 34.17C26.146 33.5302 25.8092 32.7388 25.8092 31.7959C25.8092 30.8531 26.1292 30.0617 26.769 29.4219C27.4425 28.7484 28.2507 28.4116 29.1936 28.4116H42.9894C43.023 28.4116 43.0567 28.4116 43.0904 28.4116C43.7302 28.378 44.2522 28.2433 44.6563 28.0075C45.094 27.7381 45.4139 27.4351 45.616 27.0983C45.818 26.7616 45.9191 26.408 45.9191 26.0376C45.9191 25.7008 45.818 25.3641 45.616 25.0273C45.4139 24.6906 45.094 24.4044 44.6563 24.1687C44.2522 23.8992 43.7302 23.7477 43.0904 23.7141H28.9915C28.0486 23.7141 27.2573 23.3773 26.6175 22.7038C25.944 22.0977 25.6072 21.3232 25.6072 20.3803C25.6072 19.471 25.9271 18.6965 26.567 18.0567C27.2405 17.4169 28.0486 17.097 28.9915 17.097H42.7873C45.1445 17.1307 47.0808 17.6526 48.5961 18.6628C50.1452 19.6394 51.2396 20.7843 51.8794 22.0977C52.5529 23.4109 52.8898 24.7243 52.8898 26.0376C52.8898 27.3509 52.5529 28.6473 51.8794 29.927C51.5764 30.5332 51.1891 31.0888 50.7177 31.5939C51.2901 32.2 51.7616 32.8398 52.132 33.5133C52.7719 34.8603 53.0915 36.2242 53.0915 37.6048C53.0915 38.9181 52.7548 40.2482 52.0815 41.5952C51.408 42.9085 50.3135 44.0872 48.7982 45.1311C47.2829 46.1413 45.3466 46.6801 42.9894 46.7474H42.6863C42.4842 46.7811 42.2822 46.798 42.0801 46.798H29.0925C28.1497 46.798 27.3415 46.4781 26.668 45.8382C26.0281 45.1647 25.7082 44.3565 25.7082 43.4137Z" fill="#334155"/>
</g>
<defs>
<clipPath id="clip0_4_2">
<rect width="42.4138" height="30" fill="white" transform="translate(10.7931 17)"/>
</clipPath>
</defs>
</svg>
